<?xml version="1.0" encoding="UTF-8"?>
<svg version="1.1" xmlns="http://www.w3.org/2000/svg" width="1000" height="1000">
<path d="M0 0 C9.52945318 8.51011688 18.34087908 17.68703958 26.08154297 27.85888672 C26.49823242 28.39384766 26.91492188 28.92880859 27.34423828 29.47998047 C52.95022746 62.42597968 70.08717655 104.96548593 70.28466797 147.03466797 C70.29036804 147.99930466 70.29606812 148.96394135 70.30194092 149.95780945 C70.31134837 151.99586914 70.31790788 154.03394375 70.32177734 156.07202148 C70.33139464 159.12431019 70.36242237 162.17589873 70.39404297 165.22802734 C70.48714861 182.18815465 68.501676 198.16887175 64.01904297 214.54638672 C63.72304199 215.63161621 63.42704102 216.7168457 63.12207031 217.83496094 C58.10093803 235.49717103 50.72454257 252.24399439 41.08154297 267.85888672 C40.51886719 268.78217773 40.51886719 268.78217773 39.94482422 269.72412109 C35.16466658 277.53062426 30.00497684 284.86695252 24.08154297 291.85888672 C23.62344238 292.40577148 23.1653418 292.95265625 22.69335938 293.51611328 C6.87684647 312.38873312 -10.90328104 327.99995036 -31.91845703 340.85888672 C-32.88009766 341.46345703 -33.84173828 342.06802734 -34.83251953 342.69091797 C-51.29534736 352.7364176 -69.74604717 359.48730192 -88.29345703 364.54638672 C-88.974646 364.73676514 -89.65583496 364.92714355 -90.35766602 365.12329102 C-106.97551245 369.45682017 -123.50190594 370.40226351 -140.60595703 370.29638672 C-142.1934375 370.29132614 -142.1934375 370.29132614 -143.81298828 370.28616333 C-159.19473696 370.2151076 -173.959966 369.75771632 -188.91845703 365.85888672 C-189.88960449 365.61750977 -190.86075195 365.37613281 -191.86132812 365.12744141 C-222.92100082 357.26986311 -252.57585996 342.87221207 -276.91845703 321.85888672 C-278.05347656 320.88822266 -278.05347656 320.88822266 -279.21142578 319.89794922 C-281.8297541 317.59997102 -284.3806005 315.24559667 -286.91845703 312.85888672 C-287.75618652 312.07215576 -287.75618652 312.07215576 -288.61083984 311.26953125 C-298.49781991 301.90641753 -307.05261844 291.97146409 -314.91845703 280.85888672 C-315.32757324 280.28380371 -315.73668945 279.7087207 -316.15820312 279.11621094 C-347.03629358 235.06662341 -359.39988069 178.53782415 -350.97314453 125.49951172 C-345.65697937 95.59740905 -345.65697937 95.59740905 -339.91845703 89.85888672 C-332.76471011 89.62433764 -332.76471011 89.62433764 -330.15673828 90.34716797 C-318.72733335 92.96017328 -306.29085859 91.05499424 -296.20751953 85.31591797 C-290.50738666 81.57574069 -286.11671128 77.19906612 -281.91845703 71.85888672 C-277.3365181 66.03858592 -277.3365181 66.03858592 -273.08251953 65.49951172 C-271.91462891 65.37060547 -270.74673828 65.24169922 -269.54345703 65.10888672 C-256.37231231 63.26196059 -245.82032367 57.89285271 -237.16845703 47.73388672 C-230.80979995 39.01470729 -228.45004822 29.36030329 -227.47314453 18.75732422 C-226.91845703 15.85888672 -226.91845703 15.85888672 -225.71142578 14.04638672 C-223.32563569 12.46625559 -221.15831382 12.04655027 -218.35595703 11.48388672 C-205.88174852 8.54171479 -195.09762199 1.69394618 -187.94189453 -9.19189453 C-182.68976076 -19.19500427 -181.6940776 -28.62362616 -182.22119141 -39.68408203 C-182.30044141 -43.20043413 -182.28892675 -45.47850173 -180.55126953 -48.58642578 C-176.44147951 -51.01327508 -172.30298116 -51.37469254 -167.60595703 -51.89111328 C-166.55778809 -52.01107666 -165.50961914 -52.13104004 -164.4296875 -52.25463867 C-103.91326049 -58.4579472 -45.82835212 -39.78177744 0 0 Z M-134.04345703 4.17138672 C-134.94966797 4.48011719 -135.85587891 4.78884766 -136.78955078 5.10693359 C-138.09472656 5.56616211 -138.09472656 5.56616211 -139.42626953 6.03466797 C-140.21662598 6.31221924 -141.00698242 6.58977051 -141.82128906 6.87573242 C-144.09610851 7.9421699 -145.4070539 8.85190663 -146.91845703 10.85888672 C-146.91928238 14.43645358 -146.91928238 14.43645358 -145.91845703 17.85888672 C-143.25329278 20.04601627 -143.25329278 20.04601627 -141.00048828 19.82763672 C-135.29884881 18.65001755 -129.88070519 16.90966219 -124.41845703 14.92138672 C-123.71180908 14.66873047 -123.00516113 14.41607422 -122.27709961 14.15576172 C-118.66439235 12.78999816 -117.11589551 12.15504443 -114.91845703 8.85888672 C-115.00067412 5.78223644 -115.00067412 5.78223644 -115.91845703 2.85888672 C-122.00220431 -1.1969448 -127.71442787 1.91491076 -134.04345703 4.17138672 Z M-66.91845703 9.54638672 C-68.19808614 12.50552903 -67.86451425 13.80633758 -66.91845703 16.85888672 C-64.3206513 19.669416 -61.0601584 21.69042979 -57.91845703 23.85888672 C-57.35771484 24.25785156 -56.79697266 24.65681641 -56.21923828 25.06787109 C-54.40399556 26.35350395 -52.57125038 27.60942824 -50.73095703 28.85888672 C-50.14934814 29.26913086 -49.56773926 29.679375 -48.96850586 30.10205078 C-45.99887611 32.05845315 -44.20654077 32.86434156 -40.61767578 32.79638672 C-37.61496246 32.05797427 -37.61496246 32.05797427 -35.91845703 28.85888672 C-35.16653725 26.48997176 -35.16653725 26.48997176 -35.91845703 23.85888672 C-38.19258016 21.47383075 -40.26157215 19.77660733 -42.91845703 17.85888672 C-43.47645996 17.44848145 -44.03446289 17.03807617 -44.609375 16.61523438 C-46.53012582 15.21471829 -48.47023687 13.84589129 -50.41845703 12.48388672 C-51.04695557 12.03053955 -51.6754541 11.57719238 -52.32299805 11.11010742 C-56.8738027 8.01920706 -62.10782213 5.48741352 -66.91845703 9.54638672 Z M-165.35595703 35.42138672 C-167.19621096 37.78462282 -167.19621096 37.78462282 -166.82080078 40.76513672 C-165.68577915 44.65663946 -164.37716711 45.56289541 -161.04345703 47.79638672 C-160.05216797 48.46541016 -159.06087891 49.13443359 -158.03955078 49.82373047 C-157.00958984 50.49533203 -155.97962891 51.16693359 -154.91845703 51.85888672 C-153.94005859 52.54080078 -152.96166016 53.22271484 -151.95361328 53.92529297 C-145.54400204 58.37202775 -145.54400204 58.37202775 -137.91845703 58.85888672 C-135.82081538 57.33993866 -135.82081538 57.33993866 -134.91845703 54.85888672 C-135.10536965 51.3016038 -135.3113774 49.46733724 -137.86450195 46.90844727 C-138.70086182 46.35970947 -139.53722168 45.81097168 -140.39892578 45.24560547 C-141.31609375 44.6378125 -142.23326172 44.03001953 -143.17822266 43.40380859 C-144.144375 42.79085937 -145.11052734 42.17791016 -146.10595703 41.54638672 C-147.05277344 40.91410156 -147.99958984 40.28181641 -148.97509766 39.63037109 C-156.76676183 34.06898199 -156.76676183 34.06898199 -165.35595703 35.42138672 Z M-102.16845703 40.92138672 C-103.18681641 41.57816406 -104.20517578 42.23494141 -105.25439453 42.91162109 C-110.34974162 46.13560305 -110.34974162 46.13560305 -113.84838867 50.84887695 C-114.28885156 53.5415246 -114.1738607 55.39315063 -112.85595703 57.79638672 C-109.92189093 59.40539071 -108.27129314 59.26943808 -104.91845703 58.85888672 C-101.69876473 57.24697642 -98.80221537 55.23304247 -95.85595703 53.17138672 C-95.06640625 52.6409375 -94.27685547 52.11048828 -93.46337891 51.56396484 C-89.21136487 48.65919415 -85.2470049 45.81028157 -81.91845703 41.85888672 C-81.74048315 38.67444019 -81.74048315 38.67444019 -82.91845703 35.85888672 C-90.31876431 30.92534853 -95.82100166 36.59320539 -102.16845703 40.92138672 Z M-205.35595703 63.10888672 C-206.31050781 63.40923828 -207.26505859 63.70958984 -208.24853516 64.01904297 C-214.96925626 66.08997924 -214.96925626 66.08997924 -219.91845703 70.85888672 C-219.77051702 74.55738712 -219.5604013 76.21694245 -216.91845703 78.85888672 C-210.55128258 78.85888672 -205.00112766 77.04671367 -199.04345703 74.98388672 C-198.29378662 74.72736328 -197.54411621 74.47083984 -196.77172852 74.20654297 C-196.05960205 73.95001953 -195.34747559 73.69349609 -194.61376953 73.42919922 C-193.97455566 73.19990723 -193.3353418 72.97061523 -192.67675781 72.734375 C-190.59520199 71.69793246 -189.34611712 70.69776597 -187.91845703 68.85888672 C-187.91763169 65.28131986 -187.91763169 65.28131986 -188.91845703 61.85888672 C-194.4469996 58.17319167 -199.50972298 61.18242089 -205.35595703 63.10888672 Z M9.89404297 76.85888672 C8.95431641 77.49052734 8.01458984 78.12216797 7.04638672 78.77294922 C-0.76642277 83.90935057 -0.76642277 83.90935057 -7.91845703 89.85888672 C-8.18433534 92.91648729 -8.35255584 95.06729477 -6.85595703 97.79638672 C-4.42962371 99.1269566 -2.70820534 98.95061883 -0.02026367 98.51196289 C4.42347569 97.13119825 8.07658268 94.21896664 11.83154297 91.54638672 C12.68103516 90.964375 13.53052734 90.38236328 14.40576172 89.78271484 C19.93541092 86.01943037 19.93541092 86.01943037 24.08154297 80.85888672 C23.25786618 77.02314225 23.25786618 77.02314225 21.08154297 73.85888672 C16.32125526 73.42428128 13.81981308 74.19815297 9.89404297 76.85888672 Z M-59.16845703 81.54638672 C-61.07007879 83.7278966 -61.07007879 83.7278966 -61.48095703 86.35888672 C-60.66080833 90.00399205 -58.99985981 90.77546084 -55.91845703 92.85888672 C-52.97928406 94.14510836 -49.97385821 95.13671362 -46.91845703 96.10888672 C-46.12439453 96.37701172 -45.33033203 96.64513672 -44.51220703 96.92138672 C-38.8403478 98.79970308 -38.8403478 98.79970308 -32.91845703 98.85888672 C-30.41845703 97.35888672 -30.41845703 97.35888672 -28.91845703 94.85888672 C-28.67168697 91.75595379 -28.67168697 91.75595379 -29.91845703 88.85888672 C-34.14350707 85.7231074 -39.03548462 84.2879455 -43.98095703 82.67138672 C-44.78339844 82.39875 -45.58583984 82.12611328 -46.41259766 81.84521484 C-47.18925781 81.58804688 -47.96591797 81.33087891 -48.76611328 81.06591797 C-49.46744385 80.83364502 -50.16877441 80.60137207 -50.89135742 80.36206055 C-54.32677551 79.50930893 -56.30725492 79.40048514 -59.16845703 81.54638672 Z M-195.16845703 110.10888672 C-209.6975977 127.56802042 -214.40619005 146.56316029 -212.91845703 168.85888672 C-210.62583186 186.79728073 -201.18359366 203.12957039 -187.48095703 214.79638672 C-170.66993481 227.70611686 -151.83099138 232.52317591 -130.91845703 230.85888672 C-111.43518749 228.29481493 -96.08584314 217.57841471 -83.60595703 203.04638672 C-71.13471954 186.58227901 -66.69062491 167.3619816 -69.42626953 147.09716797 C-73.04852622 128.17399943 -83.03482817 111.41408896 -98.60986328 99.86279297 C-129.59432959 79.36808908 -169.29502296 82.56782897 -195.16845703 110.10888672 Z M-264.79345703 120.98388672 C-266.61583645 124.02118574 -266.72466263 125.36532914 -265.91845703 128.85888672 C-263.2723575 131.68817776 -260.12749353 133.71378581 -256.91845703 135.85888672 C-255.75034536 136.67378606 -254.58238429 137.48890129 -253.41455078 138.30419922 C-252.18841798 139.13748232 -250.9605557 139.96822641 -249.73095703 140.79638672 C-249.14942871 141.19833252 -248.56790039 141.60027832 -247.96875 142.0144043 C-244.14874036 144.50842877 -241.46849896 145.45896471 -236.91845703 144.85888672 C-234.82081538 143.33993866 -234.82081538 143.33993866 -233.91845703 140.85888672 C-234.09404515 137.21045364 -234.35175878 135.43122005 -236.95629883 132.80078125 C-238.27368042 131.90528564 -238.27368042 131.90528564 -239.61767578 130.99169922 C-240.57996094 130.33427734 -241.54224609 129.67685547 -242.53369141 128.99951172 C-243.54753906 128.33435547 -244.56138672 127.66919922 -245.60595703 126.98388672 C-246.60046875 126.29552734 -247.59498047 125.60716797 -248.61962891 124.89794922 C-256.19379924 119.45179849 -256.19379924 119.45179849 -264.79345703 120.98388672 Z M6.20654297 120.98388672 C4.55299766 123.73979556 4.68788728 125.70964124 5.08154297 128.85888672 C8.44249373 133.21209241 13.99016221 134.04320059 19.01904297 135.60888672 C20.02128906 135.93759766 21.02353516 136.26630859 22.05615234 136.60498047 C23.02230469 136.91048828 23.98845703 137.21599609 24.98388672 137.53076172 C26.30634399 137.94986816 26.30634399 137.94986816 27.65551758 138.37744141 C31.02373909 139.04586576 33.05012312 138.53464455 35.89404297 136.67138672 C37.36313777 134.80163155 37.36313777 134.80163155 37.01904297 131.85888672 C35.88777406 128.23882621 35.28076178 127.79644178 32.08154297 125.85888672 C29.17009525 124.64655588 26.20293115 123.65162679 23.20654297 122.67138672 C22.41634766 122.39875 21.62615234 122.12611328 20.81201172 121.84521484 C13.45047088 119.24238689 13.45047088 119.24238689 6.20654297 120.98388672 Z M-312.60595703 136.23388672 C-313.45996094 136.55099609 -314.31396484 136.86810547 -315.19384766 137.19482422 C-318.74234104 138.53282644 -321.74471539 139.74305896 -324.91845703 141.85888672 C-326.09624015 144.16260093 -326.09624015 144.16260093 -325.91845703 146.85888672 C-324.04486833 149.89948552 -324.04486833 149.89948552 -320.91845703 151.85888672 C-315.3554704 151.52676811 -310.36975452 149.84473486 -305.16845703 147.98388672 C-304.41435547 147.72736328 -303.66025391 147.47083984 -302.88330078 147.20654297 C-302.15755859 146.95001953 -301.43181641 146.69349609 -300.68408203 146.42919922 C-300.03213867 146.19990723 -299.38019531 145.97061523 -298.70849609 145.734375 C-296.62125149 144.71352678 -295.38015994 143.66246631 -293.91845703 141.85888672 C-293.52480135 138.70964124 -293.38991172 136.73979556 -295.04345703 133.98388672 C-300.58854791 130.65683219 -307.16451907 134.13558164 -312.60595703 136.23388672 Z M-39.73095703 133.98388672 C-41.49690454 136.77222489 -41.38027279 138.6261764 -40.91845703 141.85888672 C-37.51441863 146.0580942 -32.80773934 148.68708878 -28.29345703 151.54638672 C-27.51744141 152.04460937 -26.74142578 152.54283203 -25.94189453 153.05615234 C-19.50639053 157.38226432 -19.50639053 157.38226432 -11.91845703 157.85888672 C-9.74825411 155.76966916 -9.74825411 155.76966916 -8.91845703 152.85888672 C-10.64985897 146.15911401 -16.48289367 143.50092032 -21.91845703 139.85888672 C-22.90716797 139.17568359 -23.89587891 138.49248047 -24.91455078 137.78857422 C-31.8644128 132.60680901 -31.8644128 132.60680901 -39.73095703 133.98388672 Z M-273.89501953 155.78076172 C-274.81283203 156.39435547 -275.73064453 157.00794922 -276.67626953 157.64013672 C-277.62244141 158.28982422 -278.56861328 158.93951172 -279.54345703 159.60888672 C-280.49736328 160.24310547 -281.45126953 160.87732422 -282.43408203 161.53076172 C-288.44723315 165.40627497 -288.44723315 165.40627497 -292.91845703 170.85888672 C-292.20621856 174.08063216 -292.20621856 174.08063216 -290.91845703 176.85888672 C-287.0590557 178.14535383 -285.07821735 178.42285553 -281.35595703 176.61279297 C-278.47705529 174.77667524 -275.69310875 172.84890332 -272.91845703 170.85888672 C-271.97486328 170.21306641 -271.03126953 169.56724609 -270.05908203 168.90185547 C-265.26149802 165.65840874 -265.26149802 165.65840874 -260.91845703 161.85888672 C-260.58472904 158.72184356 -260.38996675 156.69334506 -262.10595703 153.98388672 C-266.46089128 151.28082408 -270.00441277 153.16498788 -273.89501953 155.78076172 Z M12.20654297 203.60888672 C4.01275953 214.20749436 4.51096368 225.09724843 4.51904297 237.92138672 C4.51541369 240.61503801 4.50566948 243.30805163 4.47828674 246.00157166 C4.46173244 247.6666623 4.45843415 249.33196233 4.47129822 250.99708557 C4.39825484 259.14540314 2.42764077 266.43846542 -3.27392578 272.41748047 C-8.83605767 277.29260319 -14.61273524 277.37813524 -21.75439453 277.22216797 C-26.16048553 276.71628345 -29.2299508 275.20378395 -32.91845703 272.85888672 C-33.62615234 272.53275391 -34.33384766 272.20662109 -35.06298828 271.87060547 C-37.73659702 270.41278512 -37.99352411 268.69975211 -38.91845703 265.85888672 C-39.25619141 265.18470703 -39.59392578 264.51052734 -39.94189453 263.81591797 C-41.61710054 258.74339417 -41.35417264 253.4680766 -41.48486328 248.16357422 C-41.66806005 242.82697257 -42.03026283 238.6414887 -45.10595703 234.10888672 C-48.03492411 232.08890942 -50.39411997 231.91862125 -53.91845703 231.85888672 C-58.17644079 234.0886834 -58.17644079 234.0886834 -60.91845703 237.85888672 C-61.02255698 239.59288854 -61.06442103 241.33078703 -61.07617188 243.06787109 C-61.08643402 244.15660522 -61.09669617 245.24533936 -61.10726929 246.36706543 C-61.11457062 247.55030396 -61.12187195 248.73354248 -61.12939453 249.95263672 C-61.157481 252.45264307 -61.18614557 254.95264297 -61.21533203 257.45263672 C-61.25646982 261.39794615 -61.29335136 265.34313766 -61.31982422 269.28857422 C-61.34757656 273.09351611 -61.39346993 276.89790903 -61.44189453 280.70263672 C-61.4451474 281.8696814 -61.44840027 283.03672607 -61.45175171 284.23913574 C-61.59004045 293.53785559 -62.47602248 301.74999342 -68.91845703 308.85888672 C-68.91845703 309.51888672 -68.91845703 310.17888672 -68.91845703 310.85888672 C-78.21570266 315.56045512 -86.06999326 318.69478468 -96.59033203 316.23388672 C-102.95756606 314.07288608 -107.38233891 310.5992164 -110.91845703 304.85888672 C-114.06921268 298.37295437 -114.36373323 292.40499557 -114.44580078 285.30615234 C-114.57904668 280.68565492 -114.92248835 277.61091353 -117.91845703 273.85888672 C-121.65584263 271.36729632 -123.49177286 271.40095387 -127.91845703 271.85888672 C-130.67174724 273.65451077 -132.44473164 274.91143594 -133.91845703 277.85888672 C-134.02461075 279.62750632 -134.07385217 281.39970155 -134.09423828 283.17138672 C-134.11808594 284.24775391 -134.14193359 285.32412109 -134.16650391 286.43310547 C-134.20888129 288.68552778 -134.24044675 290.93818413 -134.26025391 293.19091797 C-134.48915364 302.16591699 -136.01947649 309.77882609 -141.98095703 316.73388672 C-148.02542449 322.16104686 -155.06435214 324.26502838 -163.10595703 323.85888672 C-171.6285342 322.72474531 -176.66237396 319.68451806 -182.37548828 313.34716797 C-188.19312343 303.96531078 -187.4023768 293.68533415 -187.48095703 283.04638672 C-187.5048049 280.50863658 -187.53294043 277.97122234 -187.57273865 275.43367004 C-187.59695997 273.86338551 -187.6119287 272.292923 -187.61634827 270.72245789 C-187.67530223 265.4676955 -187.67530223 265.4676955 -189.91845703 260.85888672 C-193.60738819 258.39959928 -196.63487124 258.16583093 -200.91845703 258.85888672 C-204.36158417 260.98336942 -205.6346325 262.00741313 -206.91845703 265.85888672 C-207.00861257 267.3686426 -207.04994815 268.88162523 -207.05908203 270.39404297 C-207.42940199 291.42210839 -207.42940199 291.42210839 -214.55908203 298.48388672 C-219.84156682 302.67180259 -226.07399892 304.39820054 -232.81298828 304.16357422 C-240.07084723 303.11327181 -244.83683743 299.50976162 -249.50830078 294.05419922 C-252.56413886 289.29691112 -253.16921607 284.67291895 -253.18969727 279.10668945 C-253.19492401 278.46035553 -253.20015076 277.81402161 -253.20553589 277.14810181 C-253.21571888 275.75516096 -253.22154627 274.36218267 -253.22341728 272.96920586 C-253.22710191 270.76184949 -253.24388306 268.55493403 -253.26417542 266.34767151 C-253.31940089 260.07585854 -253.3502986 253.80398303 -253.37475586 247.53198242 C-253.39065041 243.68643945 -253.42088134 239.84121434 -253.45952034 235.99583626 C-253.47114564 234.53468262 -253.47710047 233.07347214 -253.47720146 231.61227226 C-253.47739403 229.56840743 -253.49569425 227.52541792 -253.51782227 225.48168945 C-253.52289291 224.32064194 -253.52796356 223.15959442 -253.53318787 221.96336365 C-254.04176341 217.86529094 -255.39945227 215.05239046 -258.66845703 212.48388672 C-262.15130641 211.51642856 -264.4461186 211.88419523 -267.91845703 212.85888672 C-271.30743308 216.13649664 -272.72697812 217.69695785 -273.49853516 222.37890625 C-273.48242188 223.65362793 -273.46630859 224.92834961 -273.44970703 226.24169922 C-273.45296997 226.93721893 -273.45623291 227.63273865 -273.45959473 228.34933472 C-273.47261625 231.29487681 -273.42854287 234.23885768 -273.38867188 237.18408203 C-273.29552898 246.86661124 -273.85640927 255.26387624 -278.91845703 263.85888672 C-279.90955829 264.86770697 -280.90723145 265.87023975 -281.91845703 266.85888672 C-281.91845703 267.51888672 -281.91845703 268.17888672 -281.91845703 268.85888672 C-282.48564453 269.13732422 -283.05283203 269.41576172 -283.63720703 269.70263672 C-285.9326476 270.8660792 -288.17480175 272.09875156 -290.41845703 273.35888672 C-293.22025149 274.93249731 -296.03365516 276.44271125 -298.91845703 277.85888672 C-293.53217808 285.19864007 -287.50150805 291.84306866 -281.25341797 298.44482422 C-280.18721902 299.57419955 -279.13282921 300.71471958 -278.08251953 301.85888672 C-245.19902352 336.57851703 -194.75869025 354.8411536 -147.91845703 356.85888672 C-146.73380859 356.91302734 -145.54916016 356.96716797 -144.32861328 357.02294922 C-96.63202809 358.12402464 -45.85491425 340.68403258 -10.78564453 307.86279297 C-9.6649337 306.73454372 -8.55692722 305.59345415 -7.46533203 304.43701172 C-5.83180231 302.7704814 -4.09909159 301.33622409 -2.29345703 299.85888672 C8.14065095 290.8227466 16.62930842 279.39278408 24.08154297 267.85888672 C24.75701172 266.82376953 25.43248047 265.78865234 26.12841797 264.72216797 C40.02917096 242.82040017 50.57261577 217.69185078 54.08154297 191.85888672 C31.07948449 191.37100304 31.07948449 191.37100304 12.20654297 203.60888672 Z " fill="#000000" transform="translate(640.91845703125,341.14111328125)"/>
<path class="donut" d="M0 0 C0.16892576 19.02363914 -0.31324733 37.99192807 -1 57 C-5.455 57.495 -5.455 57.495 -10 58 C-10.33209473 57.41621582 -10.66418945 56.83243164 -11.00634766 56.23095703 C-12.54470632 53.52829085 -14.08484507 50.82664293 -15.625 48.125 C-16.14707031 47.2071875 -16.66914063 46.289375 -17.20703125 45.34375 C-17.72910156 44.42851563 -18.25117188 43.51328125 -18.7890625 42.5703125 C-19.26037598 41.74289551 -19.73168945 40.91547852 -20.21728516 40.06298828 C-22.76688377 35.68237144 -25.3922496 31.34625067 -28 27 C-29.485 45.315 -29.485 45.315 -31 64 C-33.64 64.33 -36.28 64.66 -39 65 C-39.36125977 64.32759277 -39.72251953 63.65518555 -40.09472656 62.96240234 C-41.18636601 60.93118062 -42.27844959 58.90019755 -43.37084961 56.86938477 C-44.63063882 54.52673659 -45.88932241 52.18352456 -47.14672852 49.83959961 C-50.26766118 44.02870397 -53.41304717 38.23531949 -56.63671875 32.48046875 C-57.19391602 31.48031738 -57.75111328 30.48016602 -58.32519531 29.44970703 C-59.38522511 27.55147682 -60.45336963 25.65775134 -61.53027344 23.76904297 C-62.00368164 22.91842285 -62.47708984 22.06780273 -62.96484375 21.19140625 C-63.3837085 20.45092041 -63.80257324 19.71043457 -64.23413086 18.94750977 C-65 17 -65 17 -64 14 C-61.36 13.67 -58.72 13.34 -56 13 C-55.63237549 13.74048584 -55.26475098 14.48097168 -54.88598633 15.24389648 C-53.49915426 18.03477347 -52.11041941 20.82469357 -50.72045898 23.61401367 C-49.83238664 25.39756095 -48.94644216 27.18216724 -48.06054688 28.96679688 C-44.85332574 35.39935904 -41.57188712 41.76170271 -38 48 C-37.97494385 47.25016846 -37.9498877 46.50033691 -37.92407227 45.7277832 C-37.80641359 42.2559184 -37.68447428 38.78421577 -37.5625 35.3125 C-37.52318359 34.13365234 -37.48386719 32.95480469 -37.44335938 31.74023438 C-37.16078495 23.80641388 -36.67245949 15.91026883 -36 8 C-32.535 7.505 -32.535 7.505 -29 7 C-22.12411194 18.55734376 -15.49175929 30.22209387 -9 42 C-9 28.8 -9 15.6 -9 2 C-4 0 -4 0 0 0 Z " fill="#000000" transform="translate(432,60)"/>
<path class="text-svg" d="M0 0 C2.40531044 4.78591009 4.80799537 9.57312553 7.20825195 14.36157227 C8.02523848 15.99051521 8.84294252 17.6190985 9.66137695 19.24731445 C10.83733721 21.58711166 12.01071489 23.92818822 13.18359375 26.26953125 C13.73363319 27.36186821 13.73363319 27.36186821 14.29478455 28.47627258 C15.70293674 31.29226441 17.0028968 34.00869041 18 37 C12.25 40 12.25 40 10 40 C10 39.34 10 38.68 10 38 C9.319375 38.721875 8.63875 39.44375 7.9375 40.1875 C1.26361684 46.76764884 -3.49348062 49 -13 49 C-14.66207596 50.67294115 -14.66207596 50.67294115 -16.25 52.8125 C-19.63230696 56.82010741 -21.91717543 58.63852913 -27 60 C-30.5625 60.125 -30.5625 60.125 -34 59 C-39.48157165 53.47281194 -42.84909134 47.20325729 -46.375 40.3125 C-46.92027344 39.28060547 -47.46554687 38.24871094 -48.02734375 37.18554688 C-52 29.514039 -52 29.514039 -52 25 C-49.69 24.01 -47.38 23.02 -45 22 C-44.03421668 23.71050956 -43.06871401 25.42117809 -42.10449219 27.13256836 C-41.28162298 28.59154356 -40.45673612 30.04938255 -39.62988281 31.50610352 C-36.74323238 36.60973312 -34.03462131 41.77706513 -31.484375 47.05859375 C-30.11326909 49.19615757 -30.11326909 49.19615757 -27.56640625 49.96875 C-24.34079439 50.00802686 -23.48055799 49.26563415 -21.1875 47.0625 C-20.58292969 46.49660156 -19.97835937 45.93070313 -19.35546875 45.34765625 C-18.90816406 44.90292969 -18.46085938 44.45820312 -18 44 C-18.59023817 40.23497685 -19.6705855 37.39099056 -21.50390625 34.05859375 C-21.99697266 33.14529297 -22.49003906 32.23199219 -22.99804688 31.29101562 C-24.04356534 29.38402127 -25.09044747 27.47777393 -26.13867188 25.57226562 C-26.63044922 24.66025391 -27.12222656 23.74824219 -27.62890625 22.80859375 C-28.08338135 21.98157959 -28.53785645 21.15456543 -29.00610352 20.30249023 C-30 18 -30 18 -30 14 C-27.69 13.01 -25.38 12.02 -23 11 C-21.81023928 13.06122181 -20.62336389 15.1240375 -19.4375 17.1875 C-19.07615967 17.81229248 -18.71481934 18.43708496 -18.3425293 19.08081055 C-16.5052151 22.279128 -14.72947306 25.48643742 -13.0859375 28.7890625 C-12.20808594 30.53316406 -12.20808594 30.53316406 -11.3125 32.3125 C-10.53326172 33.91544922 -10.53326172 33.91544922 -9.73828125 35.55078125 C-8.20298939 38.16986566 -8.20298939 38.16986566 -5.53125 39.0390625 C-2.35786986 38.99009058 -1.44778218 38.23414367 0.8125 36.0625 C1.41707031 35.49660156 2.02164063 34.93070313 2.64453125 34.34765625 C3.09183594 33.90292969 3.53914062 33.45820312 4 33 C3.39814828 29.1887002 2.27259931 26.22198679 0.49609375 22.8046875 C0.00302734 21.84175781 -0.49003906 20.87882813 -0.99804688 19.88671875 C-1.51431641 18.89285156 -2.03058594 17.89898438 -2.5625 16.875 C-3.59015902 14.89608783 -4.61255718 12.91443207 -5.62890625 10.9296875 C-6.08338135 10.05554199 -6.53785645 9.18139648 -7.00610352 8.28076172 C-8 6 -8 6 -8 3 C-2.25 0 -2.25 0 0 0 Z " fill="#000000" transform="translate(704,838)"/>
<path class="text-svg" d="M0 0 C8.63577666 1.32729628 17.11983706 3.06955703 25.625 5.0625 C26.79417969 5.33126953 27.96335937 5.60003906 29.16796875 5.87695312 C37.73434118 7.86717059 37.73434118 7.86717059 40 9 C39.67 11.64 39.34 14.28 39 17 C38.01 17.33 37.02 17.66 36 18 C36.10699219 18.70125 36.21398437 19.4025 36.32421875 20.125 C37.15871507 26.72918595 37.0401104 31.02835458 34 37 C33.01 37.66 32.02 38.32 31 39 C30.82013279 42.34253237 30.93392223 45.5473846 31.1171875 48.8828125 C31.2785298 53.70515463 30.69455403 56.81404165 28 61 C23.61163777 64.05277372 20.62176838 64.20681854 15.375 63.5 C5.83627209 61.73315474 -3.58610175 59.32902865 -13 57 C-12.34 54.03 -11.68 51.06 -11 48 C-9.76765625 48.26554688 -8.5353125 48.53109375 -7.265625 48.8046875 C-2.98749205 49.72149208 1.29478273 50.61681825 5.58007812 51.49951172 C7.66440655 51.93059256 9.74649731 52.37246728 11.828125 52.81640625 C12.87484375 53.02136719 13.9215625 53.22632813 15 53.4375 C15.9075 53.62183594 16.815 53.80617188 17.75 53.99609375 C20.02806269 54.19323551 20.02806269 54.19323551 21.80078125 52.921875 C23.51979074 50.16698032 23.29121234 48.02758255 23.1875 44.8125 C23.16042969 43.72582031 23.13335938 42.63914062 23.10546875 41.51953125 C23.05326172 40.27236328 23.05326172 40.27236328 23 39 C22.4013916 38.9575415 21.8027832 38.91508301 21.18603516 38.87133789 C14.71207462 38.32922987 8.64774886 37.09629359 2.375 35.4375 C1.01181641 35.08655273 1.01181641 35.08655273 -0.37890625 34.72851562 C-2.58772417 34.15887311 -4.79458552 33.58265317 -7 33 C-6.4140625 26.84765625 -6.4140625 26.84765625 -6 25 C-3.0657254 23.5328627 -1.23501559 24.48663775 1.92578125 25.25 C3.11494141 25.5284375 4.30410156 25.806875 5.52929688 26.09375 C8.0403509 26.69526217 10.55077606 27.29940599 13.06054688 27.90625 C14.25357422 28.1846875 15.44660156 28.463125 16.67578125 28.75 C17.76802002 29.01296875 18.86025879 29.2759375 19.9855957 29.546875 C23.0148264 30.0022287 25.06837406 29.80525348 28 29 C29.49084832 24.52745503 29.49084832 20.47254497 28 16 C25.1118397 14.91730494 25.1118397 14.91730494 21.55859375 14.17578125 C20.91632339 14.02465378 20.27405304 13.87352631 19.61231995 13.71781921 C17.55667371 13.23709258 15.49739352 12.77465099 13.4375 12.3125 C12.04464499 11.99012629 10.65206235 11.6665733 9.25976562 11.34179688 C5.8429006 10.54748086 2.42254688 9.76951257 -1 9 C-0.67 6.03 -0.34 3.06 0 0 Z " fill="#000000" transform="translate(889,562)"/>
<path class="text-svg" d="M0 0 C3 2.0625 3 2.0625 5 4 C5 4.66 5 5.32 5 6 C5.61488281 6.12117188 6.22976563 6.24234375 6.86328125 6.3671875 C8.07564453 6.61855469 8.07564453 6.61855469 9.3125 6.875 C10.11300781 7.03742188 10.91351562 7.19984375 11.73828125 7.3671875 C14 8 14 8 17 10 C16.34 11.98 15.68 13.96 15 16 C10.25 15.125 10.25 15.125 8 14 C7.6596875 15.5778125 7.6596875 15.5778125 7.3125 17.1875 C6.17947163 21.17737846 4.20834555 23.33942076 1 26 C-6.10205433 28.36735144 -11.29672682 26.81817752 -17.8984375 23.875 C-19.92831908 22.8718761 -19.92831908 22.8718761 -22 23 C-21.94967928 25.3900713 -21.94967928 25.3900713 -21 28 C-18.39901396 29.99017219 -18.39901396 29.99017219 -15.1875 31.5625 C-11.19842801 33.66635892 -7.90001634 35.49834857 -5 39 C-3.77025126 43.68841707 -3.40236099 46.54859057 -5.6875 50.875 C-8.35721842 54.48272759 -9.99384837 55.65684248 -14.375 56.40625 C-23.03227488 56.71543839 -30.09170535 53.98733531 -36.83203125 48.51171875 C-40.08148707 45.03751671 -41 41.67225878 -41 37 C-39.79791697 33.64682102 -38.95527565 31.65675201 -36 29.625 C-34 29 -34 29 -31 29 C-31.103125 27.9275 -31.20625 26.855 -31.3125 25.75 C-31 22 -31 22 -28.625 19.625 C-26 18 -26 18 -24 17 C-24.10699219 16.41992188 -24.21398437 15.83984375 -24.32421875 15.2421875 C-25.1489263 9.86828669 -25.16055002 6.68633279 -22 2 C-15.83028321 -5.13373504 -7.80722844 -3.87094799 0 0 Z M-16 9 C-17.06754834 10.93400917 -17.06754834 10.93400917 -17 13 C-15.35923508 16.44560634 -14.21487558 17.85674962 -11 20 C-8.04253508 20.58345476 -8.04253508 20.58345476 -5 20 C-1.86215915 17.27503295 -1.09369701 15.53407297 -0.375 11.4375 C-0.67684532 7.79625286 -0.67684532 7.79625286 -3.6875 5.5625 C-9.84649299 2.65731463 -12.28722197 3.16563453 -16 9 Z M-30.75 35.6875 C-32.29321405 38.54244599 -32.70045863 39.80902182 -32 43 C-28.22181216 47.16569429 -24.59815112 48.98538173 -19.0625 49.9765625 C-16.78629431 50.18161923 -16.78629431 50.18161923 -14.375 48.4375 C-12.78636549 46.11552538 -12.78636549 46.11552538 -13.08203125 43.5859375 C-14.34255719 40.03500911 -16.1266368 39.12433604 -19.3125 37.1875 C-20.27800781 36.58292969 -21.24351562 35.97835937 -22.23828125 35.35546875 C-25.59138433 33.70974489 -27.8715488 32.91185063 -30.75 35.6875 Z " fill="#000000" transform="translate(706,119)"/>
<path class="text-svg" d="M0 0 C4.85591027 3.51186368 7.06117525 7.88797551 9.75 13.265625 C15.03 10.955625 20.31 8.645625 25.75 6.265625 C27.07 8.905625 28.39 11.545625 29.75 14.265625 C18.20479475 20.63099093 6.39019769 26.36233553 -5.53271484 31.98339844 C-8.02078772 33.15746481 -10.50507195 34.33912948 -12.98828125 35.5234375 C-14.34615831 36.16708001 -15.70421609 36.81034149 -17.0625 37.453125 C-18.22394531 38.00355469 -19.38539063 38.55398438 -20.58203125 39.12109375 C-23.25 40.265625 -23.25 40.265625 -25.25 40.265625 C-26.84276502 37.67738184 -27.2599929 36.42218041 -27.0625 33.328125 C-27.32022302 29.118649 -29.19835474 28.02663738 -32.25 25.265625 C-35.00195069 20.81726635 -34.87858333 16.34264419 -34.25 11.265625 C-31.30680239 4.88869684 -25.5942779 0.86506226 -19.375 -2.109375 C-12.40443549 -3.5034879 -6.28870069 -3.6007883 0 0 Z M-24.875 12.140625 C-26.97660644 15.38856223 -26.83739184 17.48021092 -26.25 21.265625 C-24.87718979 24.09628675 -23.76091904 25.12867263 -21.25 27.265625 C-15.0843214 27.15001853 -10.55332694 24.63565284 -5.3125 21.703125 C-4.14364258 21.06600586 -4.14364258 21.06600586 -2.95117188 20.41601562 C-1.04550195 19.37549646 0.85300722 18.32188082 2.75 17.265625 C1.22343634 10.80280525 1.22343634 10.80280525 -3.25 6.265625 C-11.70365252 3.44774083 -18.05763017 7.27107512 -24.875 12.140625 Z " fill="#000000" transform="translate(885.25,305.734375)"/>
<path class="text-svg" d="M0 0 C1.42944945 2.35438733 2.08661261 3.48032433 1.625 6.25 C1.41875 6.8275 1.2125 7.405 1 8 C1.928125 8.70125 2.85625 9.4025 3.8125 10.125 C7.49450214 13.24120985 9.59195498 16.24443672 10.31640625 21.13671875 C10.60118647 26.54754289 9.59109755 30.80704252 6 35 C-0.84315121 41.31899494 -7.10856304 43.45106774 -16.3828125 43.25 C-22.45142495 42.67031165 -26.12975476 39.48133659 -30 35 C-31.32 32.69 -32.64 30.38 -34 28 C-41.92 31.96 -41.92 31.96 -50 36 C-53 31 -53 31 -53 27 C-52.19594727 26.57291748 -51.39189453 26.14583496 -50.56347656 25.70581055 C-47.48101584 24.06762119 -44.39914298 22.42833781 -41.31777954 20.78808594 C-39.94273741 20.05621293 -38.56755497 19.32460349 -37.19223022 18.59326172 C-27.68571938 13.53640052 -18.21246569 8.42903291 -8.85449219 3.1003418 C-8.11489258 2.6856665 -7.37529297 2.27099121 -6.61328125 1.84375 C-5.98204346 1.48474609 -5.35080566 1.12574219 -4.70043945 0.75585938 C-3 0 -3 0 0 0 Z M-8.26831055 12.89624023 C-9.13238525 13.36231689 -9.99645996 13.82839355 -10.88671875 14.30859375 C-11.82451172 14.80810547 -12.76230469 15.30761719 -13.72851562 15.82226562 C-14.70498047 16.35529297 -15.68144531 16.88832031 -16.6875 17.4375 C-18.16959961 18.23124023 -18.16959961 18.23124023 -19.68164062 19.04101562 C-22.12605908 20.35179074 -24.56506717 21.6717111 -27 23 C-26.17203082 27.61960372 -25.16316858 31.37762356 -21.25 34.3125 C-15.83404257 35.96737588 -11.83261327 35.1635987 -6.8125 32.8125 C-2.96882054 30.72977567 -0.11903438 28.94910953 2 25 C2.59272341 21.90466662 2.64005599 20.05047357 0.9765625 17.3203125 C-2.75467814 12.54007765 -2.75467814 12.54007765 -8.26831055 12.89624023 Z " fill="#000000" transform="translate(151,674)"/>
<path class="text-svg" d="M0 0 C4.9015688 2.78250673 7.59072369 6.72983553 10.6875 11.375 C11.59113281 10.7253125 12.49476563 10.075625 13.42578125 9.40625 C14.61692638 8.56213141 15.80834706 7.71840155 17 6.875 C17.59490234 6.44574219 18.18980469 6.01648438 18.80273438 5.57421875 C23.34765625 2.375 23.34765625 2.375 26.6875 2.375 C28.5 4.625 28.5 4.625 29.6875 7.375 C28.47298017 11.07573506 26.31891883 12.63305985 23.1640625 14.7734375 C22.23440674 15.4113623 21.30475098 16.04928711 20.34692383 16.70654297 C19.34556396 17.38088379 18.3442041 18.05522461 17.3125 18.75 C15.22492079 20.17658647 13.13768807 21.60368009 11.05078125 23.03125 C9.99197754 23.75183594 8.93317383 24.47242188 7.84228516 25.21484375 C2.17979632 29.09208421 -3.41631102 33.06429849 -9.01513672 37.03271484 C-9.78744629 37.57621582 -10.55975586 38.1197168 -11.35546875 38.6796875 C-12.02602295 39.15390137 -12.69657715 39.62811523 -13.38745117 40.11669922 C-15.30418326 41.36956379 -17.24526958 42.39422457 -19.3125 43.375 C-20.8125 41.6875 -20.8125 41.6875 -22.3125 39.375 C-22.250625 38.55 -22.18875 37.725 -22.125 36.875 C-22.186875 36.05 -22.24875 35.225 -22.3125 34.375 C-24.27748322 32.99058 -26.28298465 31.66296166 -28.3125 30.375 C-31.74167072 26.67510527 -32.61219749 23.7957651 -32.8125 18.875 C-32.52930621 12.12402557 -29.84004189 8.65690805 -25 4.1875 C-17.60368067 -1.78283404 -8.90100425 -4.01384908 0 0 Z M-24.3125 16.375 C-24.93577142 19.80299282 -25.07534035 22.03252113 -23.3203125 25.12109375 C-21.61936068 27.32387919 -19.99364641 29.07345264 -17.42480469 30.21069336 C-14.4260741 30.44395107 -13.19584491 29.35304876 -10.765625 27.62890625 C-9.92128906 27.03916016 -9.07695313 26.44941406 -8.20703125 25.84179688 C-7.33433594 25.21337891 -6.46164062 24.58496094 -5.5625 23.9375 C-4.67433594 23.31294922 -3.78617188 22.68839844 -2.87109375 22.04492188 C-0.67666466 20.4993831 1.50878417 18.94257401 3.6875 17.375 C3.19005808 13.24680384 2.972597 11.69486493 0.125 8.5 C-2.83393367 6.32493659 -5.49255315 5.63657143 -9.23046875 5.88671875 C-15.11555932 7.26689947 -20.71813109 11.6573908 -24.3125 16.375 Z " fill="#000000" transform="translate(850.3125,247.625)"/>
<path class="text-svg" d="M0 0 C2.69082872 0.17635452 5.32851446 0.61835921 8 1 C7.44660496 11.60485591 5.68621857 22.01534522 3.98876953 32.484375 C3.49674704 35.52007022 3.0115174 38.55679401 2.52734375 41.59375 C2.21653689 43.53131277 1.90535267 45.46881505 1.59375 47.40625 C1.44893188 48.31040649 1.30411377 49.21456299 1.15490723 50.14611816 C1.01806519 50.98799683 0.88122314 51.82987549 0.74023438 52.69726562 C0.62111694 53.43384399 0.50199951 54.17042236 0.37927246 54.92932129 C0.0035649 56.98053707 -0.47139692 58.98328751 -1 61 C-4.375 60.6875 -4.375 60.6875 -8 60 C-8.66 59.01 -9.32 58.02 -10 57 C-10.99 57.495 -10.99 57.495 -12 58 C-17.31135952 58.52940021 -21.67272741 58.66363629 -26.5 56.25 C-30.56504496 52.59145954 -32.80466319 49.74598479 -33.203125 44.14453125 C-33.32058642 35.79498184 -32.86138806 29.5303842 -27.6875 22.6875 C-22.94038422 17.94038422 -19.43731652 16.82981707 -12.8125 16.75 C-9.51074101 16.79983787 -7.14369743 16.95210086 -4 18 C-3.79503906 16.78441406 -3.59007812 15.56882812 -3.37890625 14.31640625 C-3.10698039 12.73173486 -2.83483357 11.14710137 -2.5625 9.5625 C-2.42779297 8.76005859 -2.29308594 7.95761719 -2.15429688 7.13085938 C-1.11328125 1.11328125 -1.11328125 1.11328125 0 0 Z M-16.8125 24.0625 C-21.02024875 27.78936318 -23.70385657 31.03010447 -24.2734375 36.7421875 C-24.58327685 43.36092601 -24.58327685 43.36092601 -21.8125 49.1875 C-18.93643411 51.04096469 -17.40240933 51.91701441 -14 52 C-11.98933345 51.36622995 -9.9876446 50.7026474 -8 50 C-7.49279088 47.14694871 -6.99406366 44.29283186 -6.5 41.4375 C-6.28537109 40.23770508 -6.28537109 40.23770508 -6.06640625 39.01367188 C-5.25230605 34.26475402 -4.84480411 29.81753923 -5 25 C-10.90173526 23.0987218 -10.90173526 23.0987218 -16.8125 24.0625 Z " fill="#000000" transform="translate(580,57)"/>
<path class="text-svg" d="M0 0 C6.78153843 -0.10942161 13.42336308 0.1855891 20.171875 0.83984375 C21.56095062 0.96946251 21.56095062 0.96946251 22.97808838 1.10169983 C24.91772789 1.28362671 26.85716077 1.46776922 28.79638672 1.65405273 C31.75571247 1.9380482 34.71565714 2.21469742 37.67578125 2.49023438 C39.57035294 2.66884238 41.46488566 2.8478644 43.359375 3.02734375 C44.23760925 3.10967758 45.11584351 3.19201141 46.02069092 3.27684021 C50.38331383 3.69830649 54.68480554 4.20946692 59 5 C58.4140625 11.15234375 58.4140625 11.15234375 58 13 C57.34 13.33 56.68 13.66 56 14 C56.350625 14.61875 56.70125 15.2375 57.0625 15.875 C58.80059948 21.66866494 57.9542586 27.05613989 55.3125 32.4375 C51.03269455 37.17998712 46.05683132 38.75545349 39.875 39.25 C31.6167483 38.71720957 25.76159757 36.44995847 19.59375 30.9140625 C16.1921573 26.82881636 15.74140287 23.01551732 15.8125 17.8125 C15.81894531 16.76707031 15.82539062 15.72164062 15.83203125 14.64453125 C16 12 16 12 17 10 C15.86820313 9.93941406 14.73640625 9.87882813 13.5703125 9.81640625 C12.08852855 9.73200083 10.6067584 9.64735283 9.125 9.5625 C8.37863281 9.52318359 7.63226562 9.48386719 6.86328125 9.44335938 C1.2265625 9.11328125 1.2265625 9.11328125 -1 8 C-0.67 5.36 -0.34 2.72 0 0 Z M24 11 C22.11743176 16.89004563 22.11743176 16.89004563 23 22.8125 C27.9369588 28.21229868 32.22960293 29.4939509 39.31640625 30.1171875 C42.97738454 29.95731945 45.7328165 28.85987452 48.75 26.8125 C50.71360315 23.96527544 50.82363504 21.40972247 51 18 C50.38829992 16.31238475 49.72982513 14.63999314 49 13 C36.54975377 11.27428802 36.54975377 11.27428802 24 11 Z " fill="#000000" transform="translate(875,520)"/>
<path class="text-svg" d="M0 0 C1.794375 -0.00773438 1.794375 -0.00773438 3.625 -0.015625 C6.89023592 0.24136116 9.02676905 0.97267766 12 2.25 C12.57500096 8.92069295 13.14401406 15.59187781 13.70898438 22.26342773 C13.90163516 24.53014526 14.09562632 26.79674931 14.29101562 29.06323242 C14.57259009 32.33222573 14.8492466 35.60160488 15.125 38.87109375 C15.21249512 39.87458359 15.29999023 40.87807343 15.39013672 41.91197205 C15.87412609 47.71573615 16.08406305 53.42600694 16 59.25 C13.03 59.25 10.06 59.25 7 59.25 C6.505 49.35 6.505 49.35 6 39.25 C4.35 40.24 2.7 41.23 1 42.25 C-4.57238659 43.08248306 -9.48083765 42.99625519 -14.5625 40.5 C-19.36929674 36.06295686 -21.62744396 32.14793706 -22.26171875 25.51171875 C-22.53904801 17.98557641 -21.75291422 11.44503836 -16.57421875 5.65625 C-11.41859062 1.07346944 -6.76154822 -0.0291446 0 0 Z M-11 11.25 C-14.05599904 16.16335534 -13.61245368 21.66500574 -13 27.25 C-11.77274286 30.66547978 -10.36869798 33.56565101 -7 35.25 C-3.42021091 35.52017276 -0.52738186 35.39587158 2.9375 34.4375 C5.44211981 31.78108505 5.32830653 30.93926824 5.375 27.375 C5.27939319 25.33174595 5.15174518 23.28985322 5 21.25 C4.93167969 20.06921875 4.86335937 18.8884375 4.79296875 17.671875 C4.93576443 12.07265983 4.93576443 12.07265983 3 7.25 C-2.83440367 6.51467226 -6.84012652 6.71195621 -11 11.25 Z " fill="#000000" transform="translate(536,890.75)"/>
<path class="text-svg" d="M0 0 C2.64 0 5.28 0 8 0 C8.33 6.93 8.66 13.86 9 21 C10.98 20.01 12.96 19.02 15 18 C20.85818435 17.24060573 25.25198323 18.62477938 30 22 C35.57118667 28.99969608 35.53337603 35.35315402 35 44 C33.99939627 50.11368877 30.95447822 53.77102462 26.1640625 57.5859375 C19.60827535 61.8696829 12.49347043 61.38892427 5 60 C3.35 59.34 1.7 58.68 0 58 C0 38.86 0 19.72 0 0 Z M9 28 C7.70054423 30.59891154 7.9776923 32.32666656 8.12109375 35.2265625 C8.16943359 36.2578125 8.21777344 37.2890625 8.26757812 38.3515625 C8.32365234 39.43179688 8.37972656 40.51203125 8.4375 41.625 C8.48970703 42.71296875 8.54191406 43.8009375 8.59570312 44.921875 C8.72562775 47.6148581 8.86060162 50.30749336 9 53 C12.14911479 54.57455739 14.52008816 54.34799118 18 54 C21.76594445 51.86511085 24.43221125 49.04173062 26 45 C26.68232188 38.63757004 26.93230427 32.33669866 23 27 C18.0616825 23.49538758 13.8712277 25.18551289 9 28 Z " fill="#000000" transform="translate(484,50)"/>
<path class="text-svg" d="M0 0 C7.19608934 0.36903022 13.20790396 4.77037036 18 9.9375 C20.36757757 13.56285315 21.07602386 15.66664009 21 20 C18.72792315 25.43322726 15.30091291 28.91050918 11.0859375 32.953125 C8.4299281 35.5593964 6.03406041 38.34843778 3.609375 41.16796875 C1.50760458 43.56051809 -0.71440942 45.78366974 -3 48 C-6.875 46.125 -6.875 46.125 -8 45 C-8.04063832 43.33382885 -8.042721 41.66611905 -8 40 C-9.010625 39.835 -10.02125 39.67 -11.0625 39.5 C-16.1810797 38.01665649 -19.31527859 34.48506401 -22 30 C-23.1911341 25.686163 -22.3049995 22.58821332 -20.25 18.625 C-17.1383149 14.99470071 -15.57098797 14.21993832 -10.875 13.5625 C-3.88311107 14.35190682 2.12139204 18.27688163 8 22 C9.68681738 20.89958081 9.68681738 20.89958081 11 19 C11.47233383 16.05721601 11.47233383 16.05721601 10 13 C6.36614201 9.89757579 2.53398796 7.51132932 -2 6 C-1.34 4.02 -0.68 2.04 0 0 Z M-13 23.75 C-14.11798627 25.88508274 -14.11798627 25.88508274 -14.0625 27.9375 C-12.35382566 31.25433842 -10.06150463 32.93937188 -7 35 C-4.37883489 35.3259856 -4.37883489 35.3259856 -2 34 C0.79245093 31.54182045 0.79245093 31.54182045 3 29 C1.62534444 24.87603332 -0.21503924 24.03266411 -4 22 C-8.94054633 21.28006652 -8.94054633 21.28006652 -13 23.75 Z " fill="#000000" transform="translate(783,178)"/>
<path class="text-svg" d="M0 0 C3.10354599 2.06903066 4.5785371 3.54595298 5.625 7.15625 C6.19701682 10.73135512 6.2709328 13.27186811 5 16.6875 C0.3385204 22.07733579 -4.30696693 25.54133479 -11 28 C-10.22520264 30.99152582 -10.22520264 30.99152582 -9 34 C-5.36706002 35.21097999 -4.46007593 34.67110261 -1 33.25 C-0.13375 32.90453125 0.7325 32.5590625 1.625 32.203125 C3.92002578 31.04051326 5.32041091 29.92268751 7 28 C8.9375 28.75 8.9375 28.75 11 30 C11.62890625 32.078125 11.62890625 32.078125 12 34 C3.96955757 39.93554441 -1.83065712 43.65608664 -12 43 C-15.66750376 41.69584613 -16.83108422 40.09428616 -18.48046875 36.625 C-21.17272193 30.89197523 -23.284829 24.99451882 -25.3125 19 C-25.67150391 17.96488281 -26.03050781 16.92976562 -26.40039062 15.86328125 C-29 8.28727679 -29 8.28727679 -29 6 C-27.7625 5.87625 -26.525 5.7525 -25.25 5.625 C-21.29142479 5.22914248 -18.55325037 3.94126307 -15.17578125 1.89453125 C-9.98607515 -1.11919745 -5.79051277 -1.86399363 0 0 Z M-17 11 C-16.53199289 15.05606165 -16.12046792 18.46588679 -14 22 C-8.03648545 20.72210402 -5.51582826 17.66283606 -2 13 C-3.08784968 9.75016865 -3.08784968 9.75016865 -5 7 C-10.27329537 6.38682612 -12.84287226 7.83266458 -17 11 Z " fill="#000000" transform="translate(645,869)"/>
<path class="text-svg" d="M0 0 C2.1875 3 2.1875 3 4 6 C3.34 6.99 2.68 7.98 2 9 C2.70125 9.0825 3.4025 9.165 4.125 9.25 C9.0587775 10.53707239 12.15216081 12.97366835 15.375 16.875 C17.21019695 20.40422489 17.651794 22.08923598 17 26 C12.43804459 34.74374787 3.98319402 40.99082564 -3.58203125 47.01953125 C-5.51494539 48.60270971 -7.28268899 50.19140335 -9 52 C-12.86444746 50.5341751 -14.01174362 48.526449 -16 45 C-9.84546853 39.29009247 -3.66522666 33.80262971 3.00390625 28.69140625 C5.2165848 26.97433672 5.2165848 26.97433672 7 24 C7.30615946 21.51400388 7.30615946 21.51400388 6 19 C3.55774193 16.85815636 1.08330063 15.05827573 -2 14 C-5.55503214 15.10522781 -7.94485706 17.61945921 -10.625 20.125 C-15.56770692 24.6631699 -20.71290711 28.8715679 -26 33 C-27.98 31.35 -29.96 29.7 -32 28 C-30.43668959 24.03159665 -27.67880858 21.58434869 -24.5625 18.8125 C-24.03333984 18.33417725 -23.50417969 17.85585449 -22.95898438 17.36303711 C-18.55217363 13.41275834 -14.00513775 9.65885223 -9.375 5.97265625 C-6.95583459 4.04452857 -6.95583459 4.04452857 -4.875 1.74609375 C-3 0 -3 0 0 0 Z " fill="#000000" transform="translate(818,205)"/>
<path class="text-svg" d="M0 0 C3.8828125 1.703125 3.8828125 1.703125 4.9375 4.375 C6.30008883 7.74139593 8.13777372 8.78827969 11 11 C14.19619704 13.79761247 16.6153206 16.26623371 17.5546875 20.5 C17.78981602 25.14724597 17.5342195 27.31113801 14.625 31.0625 C10.73423217 33.93425721 8.27762769 34.45634161 3.51171875 34.41796875 C-1.10005244 33.6505356 -4.40897671 30.84781344 -8 28 C-9.5159375 26.824375 -9.5159375 26.824375 -11.0625 25.625 C-11.701875 25.08875 -12.34125 24.5525 -13 24 C-14.32 25.65 -15.64 27.3 -17 29 C-15.77864189 33.61401953 -13.34489251 35.70062586 -9.75390625 38.5703125 C-8.05334443 39.95651656 -6.52439738 41.42432319 -5 43 C-5.66 44.32 -6.32 45.64 -7 47 C-13.47319738 46.59542516 -18.61304022 41.67491044 -22.9375 37.1875 C-25.47498279 33.26593569 -26.69503449 29.68562577 -26 25 C-23.16049847 19.72254261 -19.21314724 16.27660553 -14.6875 12.5 C-14.04876953 11.95730469 -13.41003906 11.41460938 -12.75195312 10.85546875 C-11.47702033 9.77300301 -10.19954799 8.69352055 -8.91943359 7.6171875 C-5.92928365 5.09788539 -2.96594816 2.54772261 0 0 Z M-4.25 15.5 C-5.1575 16.325 -6.065 17.15 -7 18 C-5.5019913 21.81311305 -3.37351976 23.72483551 0 26 C2.48952515 27.06546898 2.48952515 27.06546898 5 27 C7.30504044 25.66846734 7.30504044 25.66846734 9 24 C8.75931455 19.82811893 8.61613937 17.6494442 5.6875 14.5625 C1.61570234 12.19517578 -0.88354128 12.43958298 -4.25 15.5 Z " fill="#000000" transform="translate(193,744)"/>
<path class="text-svg" d="M0 0 C4.75 1.875 4.75 1.875 7 3 C7 4.32 7 5.64 7 7 C7.58007812 7.09796875 8.16015625 7.1959375 8.7578125 7.296875 C14.95864828 8.48383366 19.25272021 10.3442962 23.875 14.8125 C25.63355444 18.23191141 25.54872761 20.15890673 25 24 C22.06535009 31.29328606 17.25433481 37.7469734 12.8125 44.1875 C12.28946289 44.95497559 11.76642578 45.72245117 11.22753906 46.51318359 C10.4748877 47.57980225 10.4748877 47.57980225 9.70703125 48.66796875 C9.2581958 49.31016357 8.80936035 49.9523584 8.34692383 50.61401367 C7.90243896 51.07138916 7.4579541 51.52876465 7 52 C3.42424104 52 1.94704065 50.91159393 -1 49 C0.30455208 45.44826188 1.86155459 42.49676037 4.00390625 39.3828125 C4.57947266 38.52816406 5.15503906 37.67351562 5.74804688 36.79296875 C6.95529235 35.01783708 8.16882451 33.24696429 9.38867188 31.48046875 C12.68044391 26.56682475 14.79681579 22.96548832 15 17 C13.58398286 16.51891725 12.16715563 16.04021859 10.75 15.5625 C9.96109375 15.29566406 9.1721875 15.02882812 8.359375 14.75390625 C6.25178012 14.08045292 4.15246027 13.50849405 2 13 C1.73719238 13.72018311 1.47438477 14.44036621 1.20361328 15.18237305 C-0.03367765 18.07883849 -1.49748276 20.47354264 -3.2578125 23.08203125 C-4.19560547 24.47905273 -4.19560547 24.47905273 -5.15234375 25.90429688 C-5.80332031 26.86400391 -6.45429687 27.82371094 -7.125 28.8125 C-7.78371094 29.79154297 -8.44242188 30.77058594 -9.12109375 31.77929688 C-10.74325789 34.18903347 -12.36966846 36.59578494 -14 39 C-20.875 35.25 -20.875 35.25 -22 33 C-18.72412109 28.08618164 -18.72412109 28.08618164 -15.44824219 23.17236328 C-14.7313623 22.09704346 -14.7313623 22.09704346 -14 21 C-7 10.5 -7 10.5 0 0 Z " fill="#000000" transform="translate(729,134)"/>
<path class="text-svg" d="M0 0 C3.16115776 1.36983503 3.9927092 1.9890638 6 5 C5.81860352 7.03955078 5.81860352 7.03955078 5 9 C2.67198629 10.77903696 0.41433067 12.33503688 -2.0625 13.875 C-3.43194747 14.75763014 -4.8004451 15.64173582 -6.16796875 16.52734375 C-6.82845215 16.95128418 -7.48893555 17.37522461 -8.16943359 17.81201172 C-10.45121851 19.29282865 -12.67741419 20.83450779 -14.875 22.4375 C-15.47054687 22.86933594 -16.06609375 23.30117188 -16.6796875 23.74609375 C-18.28619732 25.07504125 -18.28619732 25.07504125 -19 28 C-17.02840475 32.52307145 -14.16209273 34.50274436 -10 37 C-2.6440283 32.41889956 -2.6440283 32.41889956 4.484375 27.49609375 C5.05969971 27.08157959 5.63502441 26.66706543 6.2277832 26.23999023 C7.87620627 25.04445393 9.51449304 23.83497963 11.15234375 22.625 C14 21 14 21 16.19140625 20.875 C18.96952298 22.60307261 19.74938085 25.06104499 21 28 C10.02045114 35.6963759 -0.96265584 43.38664946 -12 51 C-14.5625 48.75 -14.5625 48.75 -17 46 C-16.8125 43.6875 -16.8125 43.6875 -16 42 C-16.53109375 41.62488281 -17.0621875 41.24976563 -17.609375 40.86328125 C-27.4690664 33.72040262 -27.4690664 33.72040262 -28.41015625 28.8984375 C-28.69084568 24.59453284 -28.50488362 22.72595121 -25.95703125 19.0625 C-22.80418171 15.52711294 -19.0664189 13.01968191 -15.125 10.4375 C-13.75219924 9.52013692 -12.37980029 8.60217224 -11.0078125 7.68359375 C-10.34426758 7.24257324 -9.68072266 6.80155273 -8.99707031 6.34716797 C-5.95254915 4.29341885 -2.97748533 2.14954228 0 0 Z " fill="#000000" transform="translate(168,710)"/>
<path class="text-svg" d="M0 0 C0 3.66666667 0 7.33333333 0 11 C0.33 11.721875 0.66 12.44375 1 13.1875 C2.78109727 18.19683608 2.54811243 22.38611339 0.875 27.3125 C-1.43840633 30.62838241 -3.20328358 31.65998244 -7 33 C-10.86147184 33.56313131 -12.61782592 33.19108704 -16.125 31.4375 C-22.79477782 25.78268837 -23.85608976 19.32345213 -25 11 C-27.35171131 11.59861742 -29.6859378 12.26924352 -32 13 C-34.25681381 17.51362761 -32.29431049 23.99588184 -30.9375 28.625 C-30.628125 29.40875 -30.31875 30.1925 -30 31 C-33 33 -33 33 -35 33.0625 C-38.30839768 31.30491373 -38.80385613 28.41755393 -40 25 C-41.57859485 19.54667233 -42.03179688 13.37313283 -39.75 8.125 C-36.23346269 3.85491899 -33.44434393 2.6178672 -27.94921875 2.05078125 C-26.18868164 1.86225586 -26.18868164 1.86225586 -24.39257812 1.66992188 C-23.16990234 1.55197266 -21.94722656 1.43402344 -20.6875 1.3125 C-19.47642578 1.18294922 -18.26535156 1.05339844 -17.01757812 0.91992188 C-11.32377561 0.33090782 -5.72477185 -0.17757786 0 0 Z M-19 10 C-17.72364502 17.82009852 -17.72364502 17.82009852 -13 24 C-10.06402619 24.57287294 -8.72646491 24.45090926 -6.1875 22.875 C-4.43264258 20.1041725 -4.61325087 18.2229094 -5 15 C-5.59357418 11.9828246 -5.59357418 11.9828246 -8 10 C-11.70014615 9.56886203 -15.29189589 9.71669833 -19 10 Z " fill="#000000" transform="translate(111,523)"/>
<path class="text-svg" d="M0 0 C4.60613783 0.62370748 8.39940738 2.50626307 12.48828125 4.59765625 C13.19147995 4.95137802 13.89467865 5.30509979 14.6191864 5.66954041 C16.85318349 6.79490078 19.08284992 7.92855543 21.3125 9.0625 C22.83110152 9.8293282 24.34997888 10.59561038 25.86914062 11.36132812 C29.58265171 13.23457649 33.29230273 15.11527236 37 17 C36.3791378 20.68297866 35.93325018 22.57688029 33 25 C32.34 24.67 31.68 24.34 31 24 C30.90203125 24.86882813 30.8040625 25.73765625 30.703125 26.6328125 C29.19122462 38.2848723 29.19122462 38.2848723 25 43 C21.45552349 44.77223826 17.82576287 44.52404835 14 44 C9.90796126 42.56323657 6.10700081 40.66079138 2.25 38.6875 C1.23550781 38.18798828 0.22101562 37.68847656 -0.82421875 37.17382812 C-5.32805266 34.9396661 -9.71043184 32.62584365 -14 30 C-13.45276317 26.62537285 -12.9451 24.91765 -11 22 C-4.36505956 23.89569727 1.52376831 27.28508225 7.56835938 30.54296875 C12.68000002 33.19344908 16.2265463 34.61269305 22 34 C23.36380344 29.23197052 23.36380344 29.23197052 23 21 C14.42 16.71 5.84 12.42 -3 8 C-2 3 -2 3 0 0 Z " fill="#000000" transform="translate(859,661)"/>
<path class="text-svg" d="M0 0 C2.09429256 0.38520815 4.11442986 0.95151282 6.16967773 1.50610352 C6.77368408 1.66908936 7.37769043 1.8320752 8 2 C7.02348562 7.19939343 5.94648644 12.34618199 4.60546875 17.46484375 C4.37279297 18.36654297 4.14011719 19.26824219 3.90039062 20.19726562 C3.41721991 22.05449444 2.92203497 23.90863158 2.41601562 25.75976562 C2.18978516 26.65244141 1.96355469 27.54511719 1.73046875 28.46484375 C1.51801514 29.265271 1.30556152 30.06569824 1.08666992 30.89038086 C0.7770372 33.07504285 0.7770372 33.07504285 2.2746582 34.73657227 C4.7846612 36.57458918 6.92605118 36.75408409 10 37 C12.475 36.505 12.475 36.505 15 36 C17.64 26.76 20.28 17.52 23 8 C27.29399165 6.92650209 28.19495213 7.20317184 32 9 C30.64185178 17.77581418 28.37288882 26.17437715 25.875 34.6875 C25.49819847 35.98618332 25.12189333 37.28501077 24.74609375 38.58398438 C23.83557647 41.72410165 22.92012494 44.86268726 22 48 C19.36 47.67 16.72 47.34 14 47 C14 46.01 14 45.02 14 44 C12.58847656 44.05220703 12.58847656 44.05220703 11.1484375 44.10546875 C9.90320313 44.13253906 8.65796875 44.15960937 7.375 44.1875 C5.53035156 44.23970703 5.53035156 44.23970703 3.6484375 44.29296875 C-0.32482471 43.97391665 -2.64288087 43.11173623 -6 41 C-9.60993555 35.58509668 -8.5678307 28.89734866 -7.35205078 22.69384766 C-6.49827128 19.37261098 -5.55658881 16.09435483 -4.5625 12.8125 C-4.23701172 11.68263672 -3.91152344 10.55277344 -3.57617188 9.38867188 C-1.17900989 1.17900989 -1.17900989 1.17900989 0 0 Z " fill="#000000" transform="translate(381,874)"/>
<path class="text-svg" d="M0 0 C5.57993327 4.93110382 9.67183816 10.12769032 10.3125 17.6875 C10.22235002 23.13656534 8.27016371 27.66034149 4.46875 31.578125 C-0.52305363 35.83583986 -3.71321016 36.35704034 -10.1171875 36.2734375 C-17.04131685 35.61667726 -21.88991164 31.83028338 -26.5234375 26.84765625 C-30.30399475 22.11695895 -31.6370523 17.21930461 -31.4140625 11.26953125 C-30.18747483 4.54644223 -25.39584127 -0.2114306 -20 -4 C-12.74200258 -6.4292073 -6.0387204 -4.18065259 0 0 Z M-22 6 C-24.01670162 9.6972863 -24.17529172 11.35726371 -23.0625 15.4375 C-20.34835196 20.89002954 -15.66834835 25.69552697 -10 28 C-5.97338999 28.67634465 -2.96211854 28.66608207 0.4375 26.3125 C2.28148579 23.58340104 3 22.31525855 3 19 C1.01283982 11.97079159 -3.84081653 7.61630569 -10 4 C-15.01735819 2.49479254 -17.99740238 2.4548421 -22 6 Z " fill="#000000" transform="translate(810,770)"/>
<path class="text-svg" d="M0 0 C4.69124722 4.79786647 6.70764891 8.78413802 7.3125 15.4375 C6.82985746 20.93962493 5.30835949 25.13588766 1.125 28.8125 C-6.12387087 33.88670961 -13.45527176 33.73473778 -22 33 C-26.28358149 31.81722004 -29.05436538 29.82120901 -32.375 26.9375 C-35.59830741 21.11075199 -36.84288229 14.68259836 -35.0625 8.1875 C-33.13728309 3.51675637 -30.41578165 0.45690107 -26 -2 C-17.63622156 -5.03116803 -7.53147401 -5.07936619 0 0 Z M-26.9375 9.25 C-29.19964591 11.84386666 -29.19964591 11.84386666 -29.5625 15 C-28.81864295 18.96723761 -28.12625972 20.38266628 -25 23 C-18.33876249 25.28912234 -11.56581968 25.77632856 -5 23 C-1.57248614 20.48182655 -0.22356447 19.19234382 0.5625 15 C-0.14432845 11.23024825 -1.22059777 9.6331179 -4 7 C-11.63305705 3.43790671 -20.23283124 4.11450903 -26.9375 9.25 Z " fill="#000000" transform="translate(928,482)"/>
<path class="text-svg" d="M0 0 C2.31 0 4.62 0 7 0 C7.33 0.99 7.66 1.98 8 3 C9.155 2.505 10.31 2.01 11.5 1.5 C16.81533772 -0.47561225 21.42557433 -1.08697973 26.8125 1.1875 C29.3981731 3.32991485 30.54358905 4.96184287 32 8 C32.25164884 10.72556438 32.35155913 13.20926454 32.29296875 15.92578125 C32.28872391 16.67337204 32.28447906 17.42096283 32.28010559 18.19120789 C32.26339056 20.56534732 32.22575347 22.93861967 32.1875 25.3125 C32.17244381 26.92772206 32.15875703 28.54295751 32.14648438 30.15820312 C32.1135108 34.10579988 32.06177969 38.05275322 32 42 C29.03 42 26.06 42 23 42 C23.01047363 41.21351074 23.02094727 40.42702148 23.03173828 39.61669922 C23.07343991 36.03616561 23.09937139 32.45568324 23.125 28.875 C23.14175781 27.6375 23.15851563 26.4 23.17578125 25.125 C23.18222656 23.92617188 23.18867188 22.72734375 23.1953125 21.4921875 C23.20578613 20.39245605 23.21625977 19.29272461 23.22705078 18.15966797 C22.98673701 14.81543058 22.18909337 12.12291305 21 9 C15.98552669 7.48046263 14.72775171 8.36349951 9 10 C8.67 20.23 8.34 30.46 8 41 C4.52176885 42.15941038 2.54104422 41.70820884 -1 41 C-1.10657507 27.29280589 -1.14069132 13.66792641 0 0 Z " fill="#000000" transform="translate(474,892)"/>
<path class="text-svg" d="M0 0 C4.90331225 4.3195846 7.40384223 8.61437516 7.9375 15.125 C7.84802036 19.56644397 6.62107593 21.94191458 3.625 25.3125 C-0.89709459 28.87244681 -4.63151456 30.5516109 -10.375 31.3125 C-13.43904952 24.00398844 -16.45708171 16.68065121 -19.375 9.3125 C-21.89216211 10.63732216 -23.94017056 11.77884569 -25.75 14 C-26.71920677 17.58606505 -26.42061147 20.80316652 -25.375 24.3125 C-23.88356986 26.82928835 -22.18120179 28.99685668 -20.375 31.3125 C-20.375 31.9725 -20.375 32.6325 -20.375 33.3125 C-23.375 35.3125 -23.375 35.3125 -25.36328125 35.2109375 C-28.09004405 33.99315994 -28.98239223 32.44779975 -30.5625 29.9375 C-31.07167969 29.14601563 -31.58085938 28.35453125 -32.10546875 27.5390625 C-35.05281043 22.36987864 -34.94130769 17.10882582 -34.375 11.3125 C-31.60271608 4.92419358 -25.63936284 1.12588925 -19.36328125 -1.54296875 C-12.8124765 -3.52282658 -6.09954827 -3.04977413 0 0 Z M-12.375 6.3125 C-11.80674347 11.85300113 -9.74613483 16.34965966 -7.375 21.3125 C-4.42936986 20.9940535 -2.76423394 20.64983608 -0.5 18.6875 C1.15068093 15.20272914 0.6241864 12.97618347 -0.375 9.3125 C-3.79409522 5.64918369 -7.67801687 4.74683896 -12.375 6.3125 Z " fill="#000000" transform="translate(902.375,344.6875)"/>
<path class="text-svg" d="M0 0 C7.50997198 0.23841181 12.33293484 1.97898026 18 7 C21.58994186 11.04350979 22.64858595 15.36741536 22.38671875 20.66796875 C21.18102079 27.93869281 17.2967522 34.78516382 11.37109375 39.21875 C6.67170667 42.16243766 2.2519389 43.63356741 -3.265625 42.55859375 C-9.19977296 40.8392628 -12.65874038 38.23316805 -16.3125 33.1875 C-17.96656932 27.92455217 -17.53187875 23.56488567 -15.1875 18.6875 C-13.79147603 16.05056584 -12.40997181 13.80310239 -10 12 C-5.58376057 12.66724669 -2.49169097 15.33334136 1 17.9375 C6.24017804 21.89101873 6.24017804 21.89101873 12 25 C13.0234531 19.87260128 13.73040528 16.3147295 11.125 11.625 C7.75368654 8.263237 3.40009052 6.62966315 -1 5 C-0.67 3.35 -0.34 1.7 0 0 Z M-6 21 C-8.16149886 23.52174867 -9.79578698 25.63048522 -10 29 C-8.59955939 32.45991209 -7.4967154 33.73508512 -4.1875 35.5 C-0.10212075 36.1408438 1.58924171 35.24799978 5 33 C5.66 32.01 6.32 31.02 7 30 C5.02297434 28.49710267 3.0435417 26.99758658 1.0625 25.5 C0.49853516 25.07074219 -0.06542969 24.64148438 -0.64648438 24.19921875 C-3.07552033 21.97912851 -3.07552033 21.97912851 -6 21 Z " fill="#000000" transform="translate(255,811)"/>
<path class="text-svg" d="M0 0 C4.52777105 3.5215997 6.87418973 7.43072617 8 13 C8.18985789 17.54899509 7.62661262 20.93243776 5.3125 24.875 C-0.08045372 29.8306872 -5.84274556 30.94608471 -13 31 C-14.50175885 29.49824115 -14.42632268 27.96813438 -14.75390625 25.88671875 C-14.95209961 24.6327832 -14.95209961 24.6327832 -15.15429688 23.35351562 C-15.28900391 22.47373047 -15.42371094 21.59394531 -15.5625 20.6875 C-15.70107422 19.81931641 -15.83964844 18.95113281 -15.98242188 18.05664062 C-16.56977557 14.2865822 -17 10.83271878 -17 7 C-21.44213562 8.66321822 -24.37531537 9.84317662 -26.6875 14.125 C-27.0465225 18.57687897 -26.21252276 21.60493626 -24.7265625 25.765625 C-24 28 -24 28 -24 31 C-26.475 31.495 -26.475 31.495 -29 32 C-33.3963121 26.13825053 -35.38494811 20.77546649 -34.875 13.375 C-34.22530185 9.08551565 -32.91537008 6.2989714 -30 3 C-20.88045655 -3.31353008 -10.12783338 -5.28779511 0 0 Z M-11 6 C-10.34 11.28 -9.68 16.56 -9 22 C-3.36191885 21.4820835 -3.36191885 21.4820835 -0.5625 19.375 C1.3122011 16.98633538 1.3122011 16.98633538 1.0625 13.5 C-0.20057058 9.33929692 -1.22312976 8.09826125 -5 6 C-6.98 6 -8.96 6 -11 6 Z " fill="#000000" transform="translate(922,421)"/>
<path class="text-svg" d="M0 0 C4.18559806 7.25915531 6.87231267 13.71487535 5.6953125 22.1953125 C4.21272305 27.53669643 1.06326716 30.03256513 -3.59765625 32.8125 C-10.46501188 36.2070953 -17.7661866 37.2378767 -25.125 34.8125 C-30.38796083 32.61366143 -33.59064871 29.41180115 -35.875 24.1875 C-37.35176025 19.70658748 -37.10961958 16.5864276 -36 12 C-33.5054335 7.10325834 -31.18640294 4.82484548 -26 3 C-22.67076976 2.49164448 -19.35869162 2.21691231 -16 2 C-15.32492934 5.06070934 -14.66145078 8.1238209 -14 11.1875 C-13.80921875 12.05181641 -13.6184375 12.91613281 -13.421875 13.80664062 C-13.15117188 15.06831055 -13.15117188 15.06831055 -12.875 16.35546875 C-12.70742187 17.12528076 -12.53984375 17.89509277 -12.3671875 18.68823242 C-11.97449085 21.16060247 -11.93814715 23.50075809 -12 26 C-10.68397477 25.38245741 -9.37226444 24.75571258 -8.0625 24.125 C-7.33160156 23.77695312 -6.60070312 23.42890625 -5.84765625 23.0703125 C-3.83667541 22.1315023 -3.83667541 22.1315023 -3 20 C-2.42623089 13.86508417 -2.76861092 9.38564846 -6 4 C-6 3.34 -6 2.68 -6 2 C-2.25 0 -2.25 0 0 0 Z M-29 14 C-30.25411568 17.36174137 -30.25411568 17.36174137 -30 21 C-28.23358828 23.80189446 -26.96950178 25.51524911 -24 27 C-22.00039988 27.039992 -19.99952758 27.04346799 -18 27 C-18.42089996 21.39538469 -18.91613111 16.27913453 -21 11 C-24.72527067 11 -26.12075508 11.65114231 -29 14 Z " fill="#000000" transform="translate(112,560)"/>
<path class="text-svg" d="M0 0 C4.51503051 3.9506517 6.28266213 8.17564477 7 14 C7.02644 15.99982522 7.03124619 18.0002441 7 20 C-5.43715099 21.9799483 -5.43715099 21.9799483 -11.1875 22.5625 C-14.7981844 22.75645561 -14.7981844 22.75645561 -17 24 C-15.39368772 28.95144232 -15.39368772 28.95144232 -11.875 32.5 C-6.04960538 33.51311211 -0.3223144 32.57531342 5 30 C7 33 7 33 7.0625 35 C5.07571171 38.73983678 0.80619627 39.37912003 -3 40.6875 C-9.09672835 41.6401138 -13.59944182 41.04395097 -19 38 C-24.66863253 33.08545161 -26.51123991 28.06533181 -27.21484375 20.7734375 C-27.5081647 13.94492587 -26.00042102 8.64761606 -21.875 3.1875 C-15.06900934 -1.99097115 -8.03871436 -3.30261866 0 0 Z M-17 9 C-17.33 11.64 -17.66 14.28 -18 17 C-12.72 16.34 -7.44 15.68 -2 15 C-2.2715978 8.44381223 -2.2715978 8.44381223 -4.75 6.0625 C-9.92122712 3.62053164 -13.22876534 4.80973926 -17 9 Z " fill="#000000" transform="translate(469,72)"/>
<path class="text-svg" d="M0 0 C3.75694293 2.12657147 6.61606464 3.8535394 8.3125 7.875 C9.08125879 14.24128375 9.03718558 19.99887085 6.3125 25.875 C-1.76135038 24.49969483 -9.72149365 22.77468355 -17.6875 20.875 C-17.81009282 25.54643174 -17.69115077 28.14633008 -14.6875 31.875 C-11.08002448 33.64115989 -7.86100486 34.21185507 -3.875 34.5 C-2.89917969 34.57476562 -1.92335938 34.64953125 -0.91796875 34.7265625 C-0.18191406 34.77554688 0.55414062 34.82453125 1.3125 34.875 C1.3125 36.855 1.3125 38.835 1.3125 40.875 C-6.7821099 42.10246134 -12.68142565 42.14258925 -20 38 C-23.51424326 35.22129603 -25.27357875 33.11676376 -26.6875 28.875 C-27.42369717 20.94579443 -26.96855783 13.75315386 -22.6875 6.875 C-16.08929978 -0.40027911 -9.59687687 -2.92786074 0 0 Z M-14.6875 9.875 C-15.34286682 11.95296396 -15.34286682 11.95296396 -15.6875 13.875 C-13.58498139 14.54684618 -11.48042237 15.21230968 -9.375 15.875 C-7.61736328 16.431875 -7.61736328 16.431875 -5.82421875 17 C-2.74863324 18.00934772 -2.74863324 18.00934772 0.3125 17.875 C0.96399959 11.96743847 0.96399959 11.96743847 -1.3125 6.8125 C-6.97019189 4.57920057 -10.48504442 5.55247426 -14.6875 9.875 Z " fill="#000000" transform="translate(615.6875,83.125)"/>
<path class="text-svg" d="M0 0 C7.91302177 -0.37681056 14.53314472 0.21144249 20.875 5.3125 C24.50392708 9.90202543 26.61262923 13.71282799 26.34765625 19.7265625 C25.15277021 27.54031168 22.09936729 34.82656076 16 40 C10.99772821 43.0783211 7.03374922 43.37041023 1.3671875 42.578125 C-3.72518304 41.33444375 -7.2940103 38.41503583 -10 34 C-12.49359434 26.51921698 -10.08299255 20.84038973 -7 14 C-4.31142363 14.93449955 -1.62415464 15.87250421 1.0625 16.8125 C2.19075195 17.20405273 2.19075195 17.20405273 3.34179688 17.60351562 C7.98292683 19.23092483 12.50177338 21.01074441 17 23 C16.96327577 16.3439823 16.96327577 16.3439823 14.125 10.5625 C9.60513502 8.30256751 4.9087922 7.13478209 0 6 C0 4.02 0 2.04 0 0 Z M-2 23 C-2.65271943 26.0244821 -3.11738197 28.90004887 -3 32 C-0.53825284 35.05853435 1.14987778 35.80103522 4.9375 36.6875 C9.48849999 35.66584694 11.35624227 32.67501075 14 29 C12.27398621 28.18082358 10.5440353 27.36993984 8.8125 26.5625 C7.84957031 26.11003906 6.88664062 25.65757812 5.89453125 25.19140625 C3.23368414 24.09618578 0.83215245 23.45045204 -2 23 Z " fill="#000000" transform="translate(344,863)"/>
<path class="text-svg" d="M0 0 C6.1173947 2.58893155 10.94232593 5.74462417 14.2265625 11.65625 C16.12699019 17.77985034 15.72723506 22.62781171 13.34375 28.484375 C11.49214621 31.8376732 8.69788639 33.60808806 5.3515625 35.28125 C-1.37133917 35.93104719 -6.50802141 35.01032382 -12.6484375 32.28125 C-12.05375734 26.61296945 -10.55600949 21.67802846 -8.5859375 16.34375 C-8.30427734 15.56451172 -8.02261719 14.78527344 -7.73242188 13.98242188 C-7.04376044 12.07984875 -6.34693847 10.18023275 -5.6484375 8.28125 C-6.91042969 8.24515625 -8.17242188 8.2090625 -9.47265625 8.171875 C-10.18252686 8.15157227 -10.89239746 8.13126953 -11.6237793 8.11035156 C-13.91103746 8.14877968 -13.91103746 8.14877968 -16.4609375 10.03125 C-19.63593122 14.74838352 -20.56398093 19.75316653 -21.6484375 25.28125 C-23.31455655 25.323971 -24.98226635 25.32188832 -26.6484375 25.28125 C-27.6484375 24.28125 -27.6484375 24.28125 -27.9609375 20.90625 C-27.86214368 14.81396432 -26.15043247 8.18535131 -22.1171875 3.50390625 C-15.75255862 -1.87794905 -7.9316358 -2.15253833 0 0 Z M0.3515625 11.28125 C-1.2984375 16.23125 -2.9484375 21.18125 -4.6484375 26.28125 C-1.55669998 27.82711876 0.94585802 27.57484521 4.3515625 27.28125 C6.93489583 25.86458333 6.93489583 25.86458333 8.3515625 23.28125 C9.10167617 19.82396642 9.10167617 19.82396642 8.3515625 16.28125 C6.18411366 13.27945559 6.18411366 13.27945559 3.3515625 11.28125 C2.3615625 11.28125 1.3715625 11.28125 0.3515625 11.28125 Z " fill="#000000" transform="translate(892.6484375,629.71875)"/>
<path class="text-svg" d="M0 0 C1.11503906 0.00386719 2.23007813 0.00773437 3.37890625 0.01171875 C6.2835124 0.2973569 7.97850026 0.8034317 10.4375 2.3125 C9.21159993 10.44670754 7.5517355 18.36297454 5.4375 26.3125 C12.04836819 25.65138733 12.04836819 25.65138733 17.5 22.3125 C19.02481697 17.4330857 19.4375 12.41497624 19.4375 7.3125 C21.4175 6.9825 23.3975 6.6525 25.4375 6.3125 C27.99688694 11.43127388 27.06429161 19.33980385 25.375 24.6875 C23.51283366 28.93501276 20.34338574 31.88497101 16.4375 34.3125 C8.02221953 37.05080555 0.24286973 34.91689048 -7.5625 31.3125 C-11.83806155 28.64027403 -13.91133247 26.09219547 -15.5625 21.3125 C-16.44450509 14.19192233 -15.98278067 9.04691816 -11.5625 3.3125 C-7.65775854 0.39759685 -4.83020238 -0.07276087 0 0 Z M-7.5 9.4375 C-9.03099826 12.13926164 -9.4382742 14.20685505 -9.5625 17.3125 C-8.64226712 20.15178533 -8.64226712 20.15178533 -6.5625 22.3125 C-3.48688754 23.67230881 -3.48688754 23.67230881 -0.5625 24.3125 C-0.05661853 22.39737728 0.44198391 20.48033078 0.9375 18.5625 C1.2159375 17.49515625 1.494375 16.4278125 1.78125 15.328125 C2.57925989 12.17544698 2.57925989 12.17544698 2.4375 8.3125 C-2.75462465 7.85690428 -2.75462465 7.85690428 -7.5 9.4375 Z " fill="#000000" transform="translate(94.5625,393.6875)"/>
<path class="text-svg" d="M0 0 C4.74125374 2.6012326 8.7318186 5.93654665 12.875 9.375 C17.79686448 13.45019214 22.7565474 17.3446427 28 21 C28.66 19.68 29.32 18.36 30 17 C32.475 17.99 32.475 17.99 35 19 C34.690625 19.99 34.38125 20.98 34.0625 22 C33.67119028 23.95746754 33.67119028 23.95746754 34 26 C35.44597233 28.04087767 35.44597233 28.04087767 37.375 29.9375 C40.51386843 33.20217478 42.07007203 35.41147909 42.27734375 39.98046875 C41.55551208 45.2366233 38.81523668 49.43691977 35 53 C30.31677019 51.55900621 30.31677019 51.55900621 28.9375 49.125 C28.958125 48.42375 28.97875 47.7225 29 47 C29.66 46.38125 30.32 45.7625 31 45.125 C33.3227323 43.12152151 33.3227323 43.12152151 33.125 40 C31.64906824 36.06418198 29.60785946 34.99583715 26 33 C25.71125 33.598125 25.4225 34.19625 25.125 34.8125 C24 37 24 37 22 40 C17.33009709 38.5631068 17.33009709 38.5631068 15.9375 36.1875 C16.03177895 32.88773683 17.85602945 31.39620238 20 29 C20.33 28.34 20.66 27.68 21 27 C20.41589355 26.72905518 19.83178711 26.45811035 19.22998047 26.17895508 C17.01497094 25.0079149 15.25275286 23.72500845 13.3203125 22.13671875 C12.63839844 21.57919922 11.95648437 21.02167969 11.25390625 20.44726562 C10.55136719 19.86654297 9.84882812 19.28582031 9.125 18.6875 C8.43019531 18.11837891 7.73539063 17.54925781 7.01953125 16.96289062 C2.99567454 13.66272189 -1.00623324 10.33648539 -5 7 C-1.125 1.125 -1.125 1.125 0 0 Z " fill="#000000" transform="translate(810,742)"/>
<path class="text-svg" d="M0 0 C13.10479727 6.46680852 26.06004817 13.21026713 39 20 C39.125 23.375 39.125 23.375 39 27 C36.84394395 29.15605605 36.00083731 29.43548042 33.1328125 30.14501953 C32.33858887 30.34507599 31.54436523 30.54513245 30.72607422 30.75125122 C29.43854248 31.06387405 29.43854248 31.06387405 28.125 31.3828125 C27.24473145 31.60194305 26.36446289 31.82107361 25.45751953 32.04684448 C23.59554245 32.50897607 21.73272164 32.96771933 19.86914062 33.42333984 C17.00986371 34.12258779 14.15321673 34.83183612 11.296875 35.54296875 C9.48972847 35.99017024 7.68244136 36.4368041 5.875 36.8828125 C5.01664551 37.09527618 4.15829102 37.30773987 3.27392578 37.52664185 C-2.765625 39 -2.765625 39 -5 39 C-4.67 35.7 -4.34 32.4 -4 29 C10.85 26.03 10.85 26.03 26 23 C17.09 18.71 8.18 14.42 -1 10 C-1 2 -1 2 0 0 Z " fill="#000000" transform="translate(75,428)"/>
<path class="text-svg" d="M0 0 C0.66 0.33 1.32 0.66 2 1 C2.4140625 3.06640625 2.4140625 3.06640625 2.625 5.5625 C2.69976563 6.38878906 2.77453125 7.21507812 2.8515625 8.06640625 C2.90054688 8.70449219 2.94953125 9.34257812 3 10 C-9 18 -9 18 -21 26 C-11.1 26.99 -1.2 27.98 9 29 C9.66 31.97 10.32 34.94 11 38 C1.40968935 37.37468489 -8.13214656 36.53273483 -17.6875 35.5 C-18.93466797 35.36980469 -20.18183594 35.23960937 -21.46679688 35.10546875 C-22.65724609 34.97785156 -23.84769531 34.85023438 -25.07421875 34.71875 C-26.14244873 34.60466797 -27.21067871 34.49058594 -28.3112793 34.37304688 C-31 34 -31 34 -34 33 C-35.54372624 28.8833967 -35.54372624 28.8833967 -35 26 C-32.13027614 22.74047758 -28.56141516 20.45233922 -25 18 C-23.86515627 17.18641961 -22.73240158 16.36991879 -21.6015625 15.55078125 C-19.24210598 13.84627449 -16.87391639 12.15535158 -14.49609375 10.4765625 C-9.62658527 7.03592891 -4.81428447 3.51737518 0 0 Z " fill="#000000" transform="translate(914,373)"/>
<path class="text-svg" d="M0 0 C5.33864849 2.68209613 9.62753891 6.01462273 13 11 C12.01 12.65 11.02 14.3 10 16 C5.73262454 15.52584717 3.85698427 13.00349628 1 10 C-2.22791555 7.8480563 -3.28400809 7.79913557 -7 8 C-7.83221765 9.70833774 -7.83221765 9.70833774 -8 12 C-6.60853087 14.84129943 -6.60853087 14.84129943 -4.625 17.75 C-1.55951325 22.78966021 0.20403302 26.08304253 0 32 C-1.27879505 36.23600862 -2.39015362 37.60969832 -6.125 40 C-10.69210547 41.60569813 -14.59986043 40.79766386 -19 39 C-26.30932149 34.77217998 -26.30932149 34.77217998 -27.80078125 30.9453125 C-28 29 -28 29 -26.6875 26.75 C-26.130625 26.1725 -25.57375 25.595 -25 25 C-24.34 25 -23.68 25 -23 25 C-22.38125 25.78375 -21.7625 26.5675 -21.125 27.375 C-19.06358693 29.92145145 -18.04777735 30.98407422 -15 32 C-12.33290931 32.16750414 -12.33290931 32.16750414 -10 32 C-8.67221657 29.12991107 -8.67221657 29.12991107 -9.890625 26.94921875 C-10.33921875 26.20285156 -10.7878125 25.45648437 -11.25 24.6875 C-11.71277344 23.88828125 -12.17554688 23.0890625 -12.65234375 22.265625 C-13.09707031 21.51796875 -13.54179687 20.7703125 -14 20 C-16.76300973 15.33146633 -18.16518541 11.37695652 -17 6 C-12.94982638 -1.18479076 -7.44726955 -1.91166132 0 0 Z " fill="#000000" transform="translate(297,834)"/>
<path class="text-svg" d="M0 0 C3.40558671 1.48890251 6.42175021 3.10668764 9.51953125 5.171875 C8.44552017 8.08704792 7.74142949 9.94997676 5.51953125 12.171875 C5.01164063 11.8109375 4.50375 11.45 3.98046875 11.078125 C-0.31263113 8.18390036 -3.11462798 6.5011449 -8.48046875 7.171875 C-9.27778563 8.96471289 -9.27778563 8.96471289 -9.48046875 11.171875 C-8.20846053 13.23477232 -8.20846053 13.23477232 -6.29296875 15.109375 C-5.64714844 15.80933594 -5.00132812 16.50929688 -4.3359375 17.23046875 C-3.41748047 18.19146484 -3.41748047 18.19146484 -2.48046875 19.171875 C0.9081064 22.73879621 2.24263951 25.33796958 2.6171875 30.1796875 C2.45630022 33.46178795 1.37918438 35.50637218 -0.48046875 38.171875 C-3.26556153 40.49278565 -5.07546697 41.11628652 -8.66796875 41.609375 C-15.81578365 40.78913395 -22.18560058 38.11375196 -27.48046875 33.171875 C-26.49046875 30.201875 -26.49046875 30.201875 -25.48046875 27.171875 C-22.08993668 27.171875 -21.32037292 27.7448591 -18.60546875 29.609375 C-15.5729579 31.57716237 -13.17395408 32.95461116 -9.48046875 33.171875 C-8.49046875 32.676875 -8.49046875 32.676875 -7.48046875 32.171875 C-7.16123446 29.83744302 -7.16123446 29.83744302 -7.48046875 27.171875 C-9.10193131 25.05815967 -9.10193131 25.05815967 -11.29296875 23.234375 C-15.7422146 19.02924706 -18.19847437 15.85082158 -18.85546875 9.609375 C-18.45072776 5.89924926 -17.79908878 4.07015004 -15.48046875 1.171875 C-10.57547046 -1.78356795 -5.37501898 -1.79449452 0 0 Z " fill="#000000" transform="translate(649.48046875,93.828125)"/>
<path class="text-svg" d="M0 0 C0.66 1.98 1.32 3.96 2 6 C0.98679687 6.36351562 0.98679687 6.36351562 -0.046875 6.734375 C-6.91633164 9.09310268 -6.91633164 9.09310268 -12 14 C-11.62589056 16.10133246 -11.62589056 16.10133246 -11 18 C-9.04707031 17.94779297 -9.04707031 17.94779297 -7.0546875 17.89453125 C-5.32813796 17.86638099 -3.60157439 17.83908216 -1.875 17.8125 C-1.0190625 17.78736328 -0.163125 17.76222656 0.71875 17.73632812 C5.92661002 17.67623743 9.49599659 18.07696503 14 21 C16.74903055 24.10374417 16.99507398 25.69458647 17.0625 29.875 C16.19042063 34.74028492 13.78499173 37.90461339 10 41 C6.08163884 43.26290363 2.5640341 45 -2 45 C-2.99 41.535 -2.99 41.535 -4 38 C-2.7625 37.5875 -1.525 37.175 -0.25 36.75 C3.29611815 35.41077453 5.7154473 34.14125996 8 31 C8 29.68 8 28.36 8 27 C7.3294458 27.02618408 6.6588916 27.05236816 5.96801758 27.0793457 C2.91641872 27.18357238 -0.13480542 27.24840623 -3.1875 27.3125 C-4.24259766 27.35439453 -5.29769531 27.39628906 -6.38476562 27.43945312 C-14.20386821 27.56278282 -14.20386821 27.56278282 -18.171875 24.7578125 C-20.79597035 20.79924131 -21.40829893 17.70793667 -21 13 C-18.19445558 6.92132041 -13.20722285 3.60361142 -7.375 0.6875 C-4.80683612 -0.05591586 -2.66006502 -0.15200372 0 0 Z " fill="#000000" transform="translate(733,821)"/>
<path class="text-svg" d="M0 0 C1.98 0.66 3.96 1.32 6 2 C6 5.22417463 5.49428418 6.16250146 3.9375 8.875 C2.43476817 11.73282684 1.97441491 12.69297897 2.25 16 C2.4975 16.66 2.745 17.32 3 18 C5.24224658 18.58963678 5.24224658 18.58963678 8 18 C9.69311293 16.39109949 11.08495585 14.64375142 12.54296875 12.8203125 C15.74714025 8.8172457 18.44799261 6.85579042 23.5 6.0625 C27.5532895 5.77971236 29.82602409 6.29278526 33 9 C36.24785094 12.72430829 36.62192755 15.28467311 36.4921875 20.12109375 C35.56579498 25.53975477 33.06827604 30.46850716 30 35 C29.01 35.33 28.02 35.66 27 36 C24.3125 34.0625 24.3125 34.0625 22 32 C23.2065625 30.5459375 23.2065625 30.5459375 24.4375 29.0625 C27.45726832 24.89965554 27.87416828 21.04470785 28 16 C27.01 15.67 26.02 15.34 25 15 C21.70411826 16.82325373 19.39309652 18.47587131 17.125 21.5 C14.24871608 24.88386343 11.21980733 26.64871338 7 28 C2.65099444 28.07371196 0.68841854 27.47889985 -2.875 25 C-5.71035814 20.99714145 -6.28364898 17.86142829 -6 13 C-4.96979704 8.12214507 -3.40893022 3.73359024 0 0 Z " fill="#000000" transform="translate(94,359)"/>
<path class="text-svg" d="M0 0 C2.1015625 1.046875 2.1015625 1.046875 3.515625 2.90625 C4.1015625 5.046875 4.1015625 5.046875 3.2265625 7.296875 C2.8553125 7.874375 2.4840625 8.451875 2.1015625 9.046875 C1.15796875 8.72203125 1.15796875 8.72203125 0.1953125 8.390625 C-5.41289678 6.56626776 -10.00812346 5.71963533 -15.8984375 6.046875 C-15.58092389 10.56367359 -15.58092389 10.56367359 -12.7890625 13.953125 C-11.91765625 14.4790625 -11.04625 15.005 -10.1484375 15.546875 C-0.58592382 21.82141836 -0.58592382 21.82141836 0.5703125 27.24609375 C0.86228304 31.66214818 0.53847363 33.49498726 -2.2734375 37.046875 C-7.68818831 41.17239943 -13.27808079 40.52835549 -19.8984375 40.046875 C-22.3202556 39.30435679 -23.7971184 38.48777953 -25.8984375 37.046875 C-25.5684375 34.736875 -25.2384375 32.426875 -24.8984375 30.046875 C-24.16238281 30.2634375 -23.42632812 30.48 -22.66796875 30.703125 C-21.69214844 30.9815625 -20.71632813 31.26 -19.7109375 31.546875 C-18.74800781 31.8253125 -17.78507812 32.10375 -16.79296875 32.390625 C-14.04497874 33.01365108 -11.70245334 33.16990312 -8.8984375 33.046875 C-8.71585767 30.0647378 -8.65394914 28.70178351 -9.8984375 26.046875 C-12.55259491 24.02133382 -15.33582954 22.41154834 -18.21875 20.73046875 C-21.82004562 18.46784716 -23.19953062 16.93009073 -24.8984375 13.046875 C-25.36732432 9.22879658 -25.22861627 6.85397866 -23.7734375 3.296875 C-17.33226122 -4.43253653 -8.52632363 -2.37575581 0 0 Z " fill="#000000" transform="translate(462.8984375,890.953125)"/>
<path class="text-svg" d="M0 0 C5.51695332 1.79373702 9.73776662 5.16398996 14 9 C13.60196439 11.88575819 13.20990931 12.82189513 10.9375 14.75 C9.9784375 15.36875 9.9784375 15.36875 9 16 C8.278125 15.236875 7.55625 14.47375 6.8125 13.6875 C3.43629388 10.46134749 0.94573913 8.12971594 -3.8125 7.8125 C-4.534375 7.874375 -5.25625 7.93625 -6 8 C-6.9194437 9.67092668 -6.9194437 9.67092668 -7 12 C-5.26466165 14.82454008 -3.37457295 17.35509091 -1.3359375 19.95898438 C1.64750308 23.95736122 2.7926283 27.01715426 3 32 C1.50929132 36.07983427 -0.00618395 39.1081924 -4 41 C-11.78653901 42.24646178 -17.24517321 39.62837876 -23.5 35.25 C-24.2425 34.63125 -24.2425 34.63125 -25 34 C-24.6875 31.625 -24.6875 31.625 -24 29 C-23.01 28.34 -22.02 27.68 -21 27 C-20.2575 27.61875 -19.515 28.2375 -18.75 28.875 C-14.63927953 32.05146582 -12.24424869 33.29134715 -7 33 C-7.23976586 27.24561939 -8.8679462 24.30918529 -12.52734375 19.89453125 C-15.84956476 15.62058644 -16.47718569 12.43991682 -16 7 C-12.52374553 -0.44911671 -7.52834298 -0.90608586 0 0 Z " fill="#000000" transform="translate(325,850)"/>
<path class="text-svg" d="M0 0 C5.39102087 2.58769002 9.55928937 7.14698666 13 12 C13.69921875 14.25 13.69921875 14.25 14 16 C10.25 19 10.25 19 8 19 C6.88671875 17.35546875 6.88671875 17.35546875 5.6875 15.1875 C3.5804391 11.69225781 1.93378734 9.51299513 -2 8 C-4.25328412 8.20643199 -4.25328412 8.20643199 -6 9 C-5.5886319 12.94913379 -4.99466213 16.217138 -3.4375 19.875 C-1.73254298 24.25190458 -1.05659505 28.35158653 -2 33 C-3.73078947 36.0641384 -5.80422423 38.40211212 -9 40 C-15.19557559 40.2956395 -19.51640018 38.67438748 -24.26953125 34.765625 C-26.88330416 32.09875061 -28.3878319 29.35868354 -30 26 C-28.35 24.68 -26.7 23.36 -25 22 C-24.443125 22.7425 -23.88625 23.485 -23.3125 24.25 C-19.68434633 28.56456112 -16.72651559 31.34554108 -11 32 C-10.61570333 27.48451409 -10.94634959 24.75141383 -13 20.6875 C-15.34230778 15.79374981 -15.95473169 11.36334566 -15 6 C-11.12796859 -0.32431796 -6.99066901 -0.81755282 0 0 Z " fill="#000000" transform="translate(238,791)"/>
<path class="text-svg" d="M0 0 C2.75568012 1.14859582 5.26100429 2.64475635 7.8125 4.1875 C9.22519141 5.01313892 10.63795144 5.83866043 12.05078125 6.6640625 C12.72705566 7.0652832 13.40333008 7.46650391 14.10009766 7.87988281 C16.54205149 9.31957494 19.01632712 10.69628249 21.5 12.0625 C22.1909375 12.44535156 22.881875 12.82820312 23.59375 13.22265625 C24.0578125 13.47917969 24.521875 13.73570312 25 14 C25.33 13.01 25.66 12.02 26 11 C27.32 11.33 28.64 11.66 30 12 C30.56524519 14.18023145 31.03255567 16.26044537 31.3125 18.5 C32.16503932 21.60014299 33.60807279 22.91670856 36 25 C35.34 26.65 34.68 28.3 34 30 C30.62537285 29.45276317 28.91765 28.9451 26 27 C24.02 29.64 22.04 32.28 20 35 C18.02 34.34 16.04 33.68 14 33 C14.64778354 29.50196889 16.17177585 27.02054424 18 24 C18 23.34 18 22.68 18 22 C16.14199779 20.59139531 16.14199779 20.59139531 13.73046875 19.21484375 C12.39725586 18.41916992 12.39725586 18.41916992 11.03710938 17.60742188 C9.62655273 16.78081055 9.62655273 16.78081055 8.1875 15.9375 C7.25873047 15.38255859 6.32996094 14.82761719 5.37304688 14.25585938 C0.36767229 11.2428557 0.36767229 11.2428557 -5 9 C-5.99 11.97 -6.98 14.94 -8 18 C-9.98 17.67 -11.96 17.34 -14 17 C-13.46507521 10.79487242 -12.70352834 5.79675345 -8.1875 1.125 C-5.17368196 -0.42496356 -3.38787571 -0.33562871 0 0 Z " fill="#000000" transform="translate(844,703)"/>
<path class="text-svg" d="M0 0 C3.07676539 2.38201192 3.27857823 4.7261753 3.9375 8.5 C4.00011444 12.69516779 4.02290897 16.25953261 1.1875 19.5 C-3.1417547 21.4241132 -7.32790708 21.62171586 -12.01953125 21.59765625 C-13.13134766 21.59443359 -14.24316406 21.59121094 -15.38867188 21.58789062 C-16.53916016 21.57951172 -17.68964844 21.57113281 -18.875 21.5625 C-20.04482422 21.55798828 -21.21464844 21.55347656 -22.41992188 21.54882812 C-25.30083358 21.5370693 -28.18164044 21.52063426 -31.0625 21.5 C-31.0625 23.15 -31.0625 24.8 -31.0625 26.5 C-33.375 26.8125 -33.375 26.8125 -36.0625 26.5 C-36.495625 25.736875 -36.92875 24.97375 -37.375 24.1875 C-39.86197342 20.22676456 -42.66493339 19.86973386 -47.0625 18.5 C-47.0625 16.52 -47.0625 14.54 -47.0625 12.5 C-44.0925 12.5 -41.1225 12.5 -38.0625 12.5 C-38.0625 8.87 -38.0625 5.24 -38.0625 1.5 C-35.7525 1.5 -33.4425 1.5 -31.0625 1.5 C-31.0625 5.13 -31.0625 8.76 -31.0625 12.5 C-22.1525 12.17 -13.2425 11.84 -4.0625 11.5 C-4.5575 6.055 -4.5575 6.055 -5.0625 0.5 C-2.0625 -0.5 -2.0625 -0.5 0 0 Z " fill="#000000" transform="translate(107.0625,491.5)"/>
<path class="text-svg" d="M0 0 C1.8125 0 1.8125 0 4 1 C8.57390683 5.79171191 11.04207669 9.69945262 11.3125 16.4375 C11.16319793 21.44741378 9.99420007 24.84753009 6.5234375 28.59375 C-0.0405771 34.70817456 -6.55250219 36.58439648 -15.45703125 36.27734375 C-20.73975321 35.70119435 -23.7500081 33.48125621 -27.25 29.6875 C-31.77096013 24.03038236 -32.24206752 19.01995822 -32 12 C-29.69 12 -27.38 12 -25 12 C-24.90203125 12.67546875 -24.8040625 13.3509375 -24.703125 14.046875 C-23.63891862 20.97857419 -23.63891862 20.97857419 -19 26 C-15.28340948 27.85829526 -11.54536674 27.49461987 -7.64453125 26.24609375 C-2.28336874 24.01592011 0.66286174 22.20913183 2.9375 16.75 C3.01902212 13.16302661 1.75060238 11.04214757 0.0078125 7.96484375 C-1.03239928 5.93683395 -1.70825837 4.26335039 -2 2 C-1.34 1.34 -0.68 0.68 0 0 Z " fill="#000000" transform="translate(123,621)"/>
<path class="text-svg" d="M0 0 C0.69607544 2.23277283 0.69607544 2.23277283 1.32861328 5.22241211 C1.56871124 6.3370433 1.8088092 7.4516745 2.05618286 8.6000824 C2.30834564 9.81357864 2.56050842 11.02707489 2.8203125 12.27734375 C3.21559647 14.13257408 3.21559647 14.13257408 3.61886597 16.02528381 C4.17582663 18.64656141 4.72960204 21.26826435 5.27783203 23.89135742 C5.98124569 27.25682266 6.69374167 30.62027572 7.40980721 33.98306942 C8.09125547 37.18470523 8.7684292 40.38724015 9.4453125 43.58984375 C9.70152374 44.80131577 9.95773499 46.01278778 10.22171021 47.26097107 C10.45550385 48.37875443 10.68929749 49.49653778 10.93017578 50.64819336 C11.13732208 51.63556992 11.34446838 52.62294647 11.55789185 53.64024353 C12 56 12 56 12 58 C7.545 58.495 7.545 58.495 3 59 C0.33335171 48.85799337 -1.87506254 38.62207574 -4.0715332 28.37011719 C-4.69232119 25.47753549 -5.31968575 22.58642725 -5.94726562 19.6953125 C-6.3441501 17.84904429 -6.74064864 16.00269308 -7.13671875 14.15625 C-7.3241716 13.29584106 -7.51162445 12.43543213 -7.70475769 11.5489502 C-7.87526138 10.74711304 -8.04576508 9.94527588 -8.22143555 9.11914062 C-8.37227097 8.41809204 -8.52310638 7.71704346 -8.67851257 6.99475098 C-9 5 -9 5 -9 1 C-2.25 -1.125 -2.25 -1.125 0 0 Z " fill="#000000" transform="translate(588,884)"/>
<path class="text-svg" d="M0 0 C2.02560365 7.4711829 4.03621311 14.94628294 6.03637695 22.42431641 C6.71878785 24.96854165 7.40464453 27.51184523 8.09399414 30.05419922 C9.08343216 33.70564579 10.06048947 37.36021188 11.03515625 41.015625 C11.34655045 42.15429016 11.65794464 43.29295532 11.97877502 44.46612549 C12.25914108 45.52692322 12.53950714 46.58772095 12.82836914 47.68066406 C13.07929825 48.61332092 13.33022736 49.54597778 13.58876038 50.50689697 C14.00983872 53.05964638 13.83299224 54.57679017 13 57 C9.535 57.495 9.535 57.495 6 58 C3.61198329 51.93416322 1.75911837 45.84725139 0.08203125 39.55078125 C-0.18007645 38.57513718 -0.44218414 37.5994931 -0.7122345 36.59428406 C-1.26130492 34.54509584 -1.80828535 32.49534658 -2.35327148 30.44506836 C-3.18826852 27.30961419 -4.03421198 24.17724753 -4.88085938 21.04492188 C-5.41472856 19.04705287 -5.94795414 17.04901174 -6.48046875 15.05078125 C-6.86008003 13.65065544 -6.86008003 13.65065544 -7.24736023 12.22224426 C-7.47792618 11.34750961 -7.70849213 10.47277496 -7.94604492 9.5715332 C-8.15017502 8.80734573 -8.35430511 8.04315826 -8.56462097 7.2558136 C-9.04044125 4.79046322 -9.07451779 2.50489892 -9 0 C-5.64998162 -1.11667279 -3.40745188 -0.76286236 0 0 Z " fill="#000000" transform="translate(608,880)"/>
<path class="text-svg" d="M0 0 C0 2.64 0 5.28 0 8 C-2.64703846 8.88234615 -4.65824165 9.23845021 -7.40454102 9.48071289 C-8.2929921 9.56072037 -9.18144318 9.64072784 -10.09681702 9.72315979 C-11.05615646 9.80549362 -12.01549591 9.88782745 -13.00390625 9.97265625 C-14.49349098 10.1037101 -14.49349098 10.1037101 -16.01316833 10.2374115 C-18.11872705 10.42157888 -20.22445099 10.60386555 -22.33032227 10.78442383 C-25.52609984 11.05936836 -28.72105046 11.34274222 -31.91601562 11.62695312 C-33.96610118 11.80520182 -36.01623018 11.98295173 -38.06640625 12.16015625 C-39.484161 12.28669334 -39.484161 12.28669334 -40.93055725 12.41578674 C-46.96896674 12.92547989 -52.94099832 13.09921526 -59 13 C-59.33 10.36 -59.66 7.72 -60 5 C-57.79653245 3.89826623 -56.29335459 3.7419862 -53.84838867 3.51928711 C-52.5601545 3.39927589 -52.5601545 3.39927589 -51.24589539 3.27684021 C-50.3126796 3.19450638 -49.37946381 3.11217255 -48.41796875 3.02734375 C-47.45280838 2.93997452 -46.48764801 2.85260529 -45.49324036 2.7625885 C-43.44139821 2.57817821 -41.38936321 2.39590349 -39.3371582 2.21557617 C-36.23774749 1.94193624 -33.13940775 1.65795934 -30.04101562 1.37304688 C-20.00409864 0.4701653 -10.08617781 -0.33867416 0 0 Z " fill="#000000" transform="translate(951,458)"/>
<path class="text-svg" d="M0 0 C3.74096588 1.49971906 5.49930257 3.58642714 7.9375 6.75 C12.22881569 12.17136215 16.83181462 17.18954606 21.65795898 22.13964844 C24.62984689 25.25267077 26.74219231 27.77566474 28 32 C24.93882432 34.62386487 24.26826873 35 20 35 C19.76925781 35.54269531 19.53851562 36.08539062 19.30078125 36.64453125 C17.23046561 41.18613276 15.76296329 43.88312742 11 46 C9.29115995 44.37660195 7.62553283 42.70680947 6 41 C6 40.34 6 39.68 6 39 C6.94875 38.4225 7.8975 37.845 8.875 37.25 C12.09229054 35.2151243 12.09229054 35.2151243 13.8125 32.25 C14.02904228 28.49660054 13.73589468 28.20146384 11.375 25.5 C10.73175781 24.84 10.08851563 24.18 9.42578125 23.5 C6.31513175 20.29417764 3.45151443 16.90487931 0.5625 13.5 C-0.49818072 12.25997409 -1.55933978 11.02035708 -2.62109375 9.78125 C-3.40613281 8.8634375 -4.19117188 7.945625 -5 7 C-3.64062915 4.1394109 -2.35479531 2.14072301 0 0 Z " fill="#000000" transform="translate(766,789)"/>
<path class="text-svg" d="M0 0 C0.19335938 0.62648438 0.38671875 1.25296875 0.5859375 1.8984375 C0.84632812 2.71570313 1.10671875 3.53296875 1.375 4.375 C1.63023438 5.18710937 1.88546875 5.99921875 2.1484375 6.8359375 C2.89854283 9.16459185 2.89854283 9.16459185 5 11 C11.283 10.60468407 17.28042044 8.64454287 23.3125 6.9375 C25.28712684 6.38185806 27.26235879 5.82836061 29.23828125 5.27734375 C30.5382605 4.90984009 30.5382605 4.90984009 31.86450195 4.53491211 C34 4 34 4 36 4 C36.66 6.97 37.32 9.94 38 13 C32.9481335 14.4307787 27.89441567 15.85474704 22.83886719 17.27246094 C21.11959199 17.75562202 19.40083588 18.24063418 17.68261719 18.72753906 C15.21163181 19.42741353 12.73885118 20.12059189 10.265625 20.8125 C9.11540863 21.14060669 9.11540863 21.14060669 7.94195557 21.4753418 C4.46538015 22.44146217 1.63755691 23 -2 23 C-2.66 20.69 -3.32 18.38 -4 16 C-3.34 15.67 -2.68 15.34 -2 15 C-2.804375 14.175 -3.60875 13.35 -4.4375 12.5 C-7.55500586 8.81887726 -7.75501064 5.73646089 -8 1 C-5.10765685 0.17361624 -3.11257569 0 0 0 Z " fill="#000000" transform="translate(89,602)"/>
<path class="text-svg" d="M0 0 C4.46840411 0.49648935 5.68987756 0.68987756 9 4 C1.08 21.82 1.08 21.82 -7 40 C-12 39 -12 39 -15 38 C-14.41010944 33.07424723 -12.85920062 28.90115446 -10.83984375 24.4140625 C-10.53051407 23.71227875 -10.22118439 23.010495 -9.90248108 22.28744507 C-8.92056459 20.06372629 -7.92920867 17.84436647 -6.9375 15.625 C-6.26694845 14.1109558 -5.59701996 12.59663549 -4.92773438 11.08203125 C-3.29234825 7.38478706 -1.64848765 3.69142012 0 0 Z " fill="#000000" transform="translate(670,104)"/>
<path class="text-svg" d="M0 0 C2.97 0.33 5.94 0.66 9 1 C7.68544961 9.93949694 6.15455467 18.81690004 4.4375 27.6875 C4.21642578 28.85216797 3.99535156 30.01683594 3.76757812 31.21679688 C3.55423828 32.32474609 3.34089844 33.43269531 3.12109375 34.57421875 C2.83383423 36.06828247 2.83383423 36.06828247 2.54077148 37.5925293 C2 40 2 40 1 42 C-2.96 41.505 -2.96 41.505 -7 41 C-6.45733335 31.939256 -4.77845183 23.17983973 -2.9375 14.3125 C-2.65245056 12.9174288 -2.36794179 11.52224701 -2.08398438 10.12695312 C-1.39553655 6.75000735 -0.69983559 3.37460656 0 0 Z " fill="#000000" transform="translate(423,885)"/>
<path class="text-svg" d="M0 0 C13.53 0.66 27.06 1.32 41 2 C41 4.97 41 7.94 41 11 C32.64830907 11.11235459 24.34157463 10.99327019 16 10.5625 C15.21197998 10.52326416 14.42395996 10.48402832 13.61206055 10.44360352 C9.02248556 10.18973702 4.54037125 9.7184896 0 9 C0 6.03 0 3.06 0 0 Z " fill="#000000" transform="translate(70,474)"/>
<path class="text-svg" d="M0 0 C1.875 1.0625 1.875 1.0625 3 3 C3.375 6.5625 3.375 6.5625 3 10 C0 12 0 12 -3.5625 11.8125 C-7 11 -7 11 -9 8 C-9.35384949 5.16920408 -9.3920891 3.63169911 -7.875 1.1875 C-5.12844028 -0.55198782 -3.18153026 -0.39769128 0 0 Z " fill="#000000" transform="translate(135,350)"/>
<path class="text-svg" d="M0 0 C2.9375 0.8125 2.9375 0.8125 4.9375 2.8125 C5.25 6.3125 5.25 6.3125 4.9375 9.8125 C1.9375 11.8125 1.9375 11.8125 -1.125 11.625 C-4.0625 10.8125 -4.0625 10.8125 -6.0625 7.8125 C-6.41938862 4.95739108 -6.42820003 3.42200005 -4.9375 0.9375 C-3.0625 -0.1875 -3.0625 -0.1875 0 0 Z " fill="#000000" transform="translate(58.0625,472.1875)"/>
<path class="text-svg" d="M0 0 C1 1 1 1 1.1875 4.4375 C1 8 1 8 -1 10 C-4.5 10.25 -4.5 10.25 -8 10 C-10 8 -10 8 -10.375 5.0625 C-10 2 -10 2 -8.375 0.0625 C-5.21388719 -1.35168205 -3.29541719 -0.87877792 0 0 Z " fill="#000000" transform="translate(422,933)"/>
<path class="text-svg" d="M0 0 C3.5625 0.375 3.5625 0.375 5.625 2.0625 C6.5625 4.375 6.5625 4.375 5.9375 7 C4.5625 9.375 4.5625 9.375 1.5625 11.375 C-1.75990324 11.0508631 -3.04526303 10.76723697 -5.4375 8.375 C-5.6875 5.375 -5.6875 5.375 -5.4375 2.375 C-3.4375 0.375 -3.4375 0.375 0 0 Z " fill="#000000" transform="translate(679.4375,88.625)"/>
</svg>
